<svg width="1331" height="466" fill="none" xmlns="http://www.w3.org/2000/svg"><path d="M235.254 199.025c-1.359 5.438-5.741-1.552-6.896 2.773-1.911 7.207-2.518 13.882-5.37 19.74-7.093 14.582-24.67 24.09-31.888 24.09-8.137 0-24.798-9.51-31.891-24.092-2.87-5.885-3.486-12.594-5.397-19.843-.391-1.483-4.728 1.499-5.881-1.384-2.18-5.455-3.799-21.338-1.812-23.428 2.446-2.569 5.577 4.048 5.378.492-.119-2.101-.574-12.326-.215-14.354C156.626 132.69 178.066 131 191.1 131c15.584 0 36.001.705 39.815 32.015.255 2.09-.096 12.328-.219 14.471-.123 2.143 3.426-2.376 5.485-.502 2.059 1.874-.277 19.439-.927 22.041z" stroke="#FBB000" stroke-width="4" stroke-miterlimit="10"/><path d="M150.035 176.734c1.382.094.778 4.778 2.359 4.62 6.397-.644 16.902-6.941 21.53-11.348 2.635-2.514 4.745-2.241 6.357-.568 10.708 11.1 38.02 11.647 48.119 11.918 1.866.051 2.306-3.349 3.178-3.447" stroke="#FBB000" stroke-width="4" stroke-miterlimit="10"/><path d="M183.459 194.115a2.178 2.178 0 01-1.025-.25 11.961 11.961 0 00-11.789 0 2.197 2.197 0 01-2.498-.199 2.2 2.2 0 01-.246-3.171c.198-.222.439-.401.708-.527a16.315 16.315 0 0115.859 0 2.2 2.2 0 01-1.025 4.153l.016-.006zM209.731 194.117a2.178 2.178 0 01-1.025-.25 11.96 11.96 0 00-11.787 0 2.197 2.197 0 01-2.498-.199 2.186 2.186 0 01-.557-.685 2.192 2.192 0 01-.135-1.724 2.206 2.206 0 011.154-1.289 16.302 16.302 0 0115.859 0 2.2 2.2 0 01-1.025 4.153l.014-.006z" fill="#FBB000"/><path d="M142.59 322.735h-13.462c-5.127 0-9.283-2.666-9.283-5.946v-43.472c0-7.651 6.791-13.913 13.577-15.261 9.986-2.05 17.997-2.204 26.815-4.716 1.486 1.948 17.366 5.022 30.881 14.643 12.853-6.541 28.138-13.494 29.024-14.639 10.505 3.261 17.272 3.511 26.813 5.434 9.299 1.934 12.098 8.223 12.562 14.537l.502 6.941 9.402 36.541c0 3.281-4.155 5.946-9.283 5.946h-17.992" stroke="#FBB000" stroke-width="4" stroke-miterlimit="10"/><path d="M169.409 234.896a21.045 21.045 0 01-1.052 9.966 16.499 16.499 0 01-8.69 8.997M210.894 236.813a16.664 16.664 0 00.699 9.203 12.935 12.935 0 008.547 7.334M259.574 278.434l-22.56 14.153M237.016 326.633a8.412 8.412 0 01-2.462 5.935 8.412 8.412 0 01-5.935 2.462h-77.632a8.4 8.4 0 01-7.759-5.183 8.417 8.417 0 01-.638-3.214v-41.725a8.399 8.399 0 018.397-8.397h77.622a8.408 8.408 0 018.407 8.397v18.931" stroke="#FBB000" stroke-width="4" stroke-miterlimit="10"/><path d="M189.492 317.121a10.122 10.122 0 01-9.351-6.249 10.124 10.124 0 1119.476-3.885 10.135 10.135 0 01-10.125 10.134zm0-15.841a5.714 5.714 0 00-5.284 3.534 5.718 5.718 0 004.172 7.799 5.726 5.726 0 005.872-2.435 5.726 5.726 0 00.963-3.179 5.727 5.727 0 00-5.723-5.721v.002z" fill="#FBB000"/><path d="M239.429 326.533h-11.13a5.573 5.573 0 01-5.487-4.607l-1.864-10.62a6.36 6.36 0 011.39-5.196 6.351 6.351 0 014.876-2.27h11.33a3.609 3.609 0 012.548 1.054 3.611 3.611 0 011.054 2.549v16.371a2.72 2.72 0 01-2.717 2.719v0zM248.146 307.212c1.889.023-6.588-.063-6.588-.063M119 284.515l25.002 3.08" stroke="#FBB000" stroke-width="4" stroke-miterlimit="10"/><path d="M189.477 229.033a16.517 16.517 0 01-11.399-5.442 2.203 2.203 0 013.076-3.152c5.678 5.537 10.981 5.537 16.698 0a2.199 2.199 0 013.112.052 2.203 2.203 0 01-.053 3.112 16.637 16.637 0 01-11.434 5.43z" fill="#FBB000"/><path d="M1104.05 329.521h103.37c1.14 0 2.26-.225 3.31-.663a8.64 8.64 0 004.65-4.704 8.74 8.74 0 00.62-3.315l-.37-39.336c-.08-8.498-2.6-12.431-9.94-17.592-5.09-3.572-24.39-2.872-30.58-8.919-5.84-6.102-5.56-10.607-5.38-14.548M1130.03 239.973c-.8.268 1.18 8.309-3.1 13.235-4.97 5.726-18.77 6.666-28.58 8.891a19.805 19.805 0 00-10.08 7.065c-2.45 3.294-2.65 2.352-2.8 2.225" stroke="#FBB000" stroke-width="4" stroke-miterlimit="10"/><path d="M1104.87 259.321c.6-34.462-3.12-65.999.28-89.09a44.758 44.758 0 0114.78-28.017A44.726 44.726 0 011149.55 131c24.5 0 43.74 20.086 45.16 38.973 1.27 16.934 1.04 57.955.18 90.386" stroke="#FBB000" stroke-width="4" stroke-miterlimit="10"/><path d="M1111.9 183.986a.361.361 0 01.1-.22.337.337 0 01.23-.093 91.16 91.16 0 0027.11-4.372c9.56-3.062 9.56-3.813 16.69-7.661" stroke="#FBB000" stroke-width="4" stroke-miterlimit="10"/><path d="M1154.35 172.561c4.36-2.649 8.4-7.342 8.91-6.71a83.648 83.648 0 0013.65 13.019 79.525 79.525 0 0011.58 7.165c.09.045.16.115.21.2.05.085.08.184.08.283M1188.77 186.518c-1.41 40.338-10.02 53.473-34.85 62.175a12.28 12.28 0 01-7.63.167c-24.21-7.41-36.86-27.68-34.39-64.874" stroke="#FBB000" stroke-width="4" stroke-miterlimit="10"/><path d="M1142.74 199.689c-.4 0-.78-.088-1.14-.26a14.28 14.28 0 00-13.06 0 2.642 2.642 0 01-2.03.14c-.33-.113-.63-.29-.89-.522a2.489 2.489 0 01-.63-.827 2.504 2.504 0 01-.25-1.004 2.6 2.6 0 01.69-1.91c.24-.256.52-.463.84-.607a19.46 19.46 0 0117.6 0c.54.257.97.689 1.23 1.225.26.535.33 1.143.2 1.722a2.65 2.65 0 01-.93 1.468c-.46.371-1.04.573-1.63.573v.002zM1156.56 199.691a2.639 2.639 0 01-1.64-.57c-.46-.37-.79-.889-.92-1.469a2.63 2.63 0 01.19-1.725c.26-.536.7-.968 1.24-1.224a19.458 19.458 0 0117.6 0c.63.303 1.1.841 1.33 1.496.23.654.19 1.373-.11 1.998s-.83 1.106-1.49 1.338a2.63 2.63 0 01-2-.102 14.27 14.27 0 00-13.06 0c-.36.169-.75.257-1.14.258zM1150.29 233.896a17.244 17.244 0 01-11.91-5.683 2.663 2.663 0 01-.79-1.846c-.01-.696.26-1.367.75-1.865a2.61 2.61 0 011.84-.793 2.63 2.63 0 011.87.745c5.69 5.547 10.79 5.545 16.53 0a2.622 2.622 0 014.26.921c.13.321.19.663.19 1.007a2.654 2.654 0 01-.8 1.843 17.396 17.396 0 01-11.94 5.671z" fill="#FBB000"/><path d="M1124.69 255.137l25.09 46.947 26.1-46.434M1149.78 329.522v-27.439M1110.22 260.343l-7.3 18.735c-.08.192-.1.4-.08.604.02.205.1.401.21.571.12.17.28.309.46.405.18.096.38.146.59.146h9.7c.67 0 1.32.193 1.88.555l34.25 22.163M1189.7 260.192l6.8 18.396c.1.249.13.516.09.779-.03.264-.13.515-.28.732-.15.218-.35.396-.59.519-.23.123-.5.187-.76.187h-9.1c-.48 0-.95.139-1.35.399l-34.58 22.317M1189.16 314.973v13.516M1098.43 216.765l2.81-23.227a4.165 4.165 0 00-3.64-4.63l-2.36-.286a4.165 4.165 0 00-4.63 3.632l-2.81 23.227a4.164 4.164 0 003.63 4.63l2.37.286a4.164 4.164 0 004.63-3.632z" stroke="#FBB000" stroke-width="4" stroke-miterlimit="10"/><path d="M1085.61 271.516l-4.3-4.11a5.872 5.872 0 01-1.19-2.287 5.895 5.895 0 01-.12-2.575l7.05-58.693c.1-.746.4-1.451.87-2.035v0c.58-.719.95-1.585 1.07-2.502a4.967 4.967 0 00-.43-2.686l-2.96-6.385a3.453 3.453 0 01-.31-1.304c-.01-.451.07-.9.23-1.32.17-.419.42-.801.74-1.122.31-.32.69-.573 1.11-.743l3.96-1.596a3.87 3.87 0 011.5-.288c.52.005 1.03.112 1.51.316l1.33.572a3.387 3.387 0 002.87-.098c.44-.226.83-.546 1.13-.939.31-.392.52-.847.63-1.331l1.44-6.447" stroke="#FBB000" stroke-width="4" stroke-miterlimit="10"/><path d="M1103.02 178.276l-6.96-4.964a4.365 4.365 0 00-3.38-.377l-20.15 5.985a3.563 3.563 0 00-2.47 4.212l2.97 13.303a10.11 10.11 0 01-.08 4.736l-15.81 79.901a5.972 5.972 0 00.57 4.105 6.018 6.018 0 003.09 2.759c6.93 2.964 13.6 6.482 19.96 10.521a119.993 119.993 0 0118.93 15.455 6.675 6.675 0 012.04 4.539c.18 4.757-1.59 11.074 2.82 11.074M1069 216.232l15.21 8.705" stroke="#FBB000" stroke-width="4" stroke-miterlimit="10"/><path d="M639 240c0 18-12 19-12 19s-11.3 1-20.5 3-17.5 10.167-17.5 21-1 33-1 39 6 7.833 9 8h131c9.5 0 19-8 26-20l19-29m-150.5-99l2 33c3.167 11.833 14.9 35.5 36.5 35.5s33.333-23.667 36.5-35.5l2.5-33h2c3.167-16.667-.6-50-41-50s-44.167 33.333-41 50h2.5z" stroke="#FBB000" stroke-width="4" stroke-linecap="round" stroke-linejoin="round"/><path d="M622.5 182c16.833 2.333 54.4-1.9 70-37.5-4.333 9-9 29.4 7 39M700 189.5h8.5c1.5-.167 4.5.8 4.5 6V213c.167 2-.5 6-4.5 6H696m-74-29.5h-8.5c-1.667 0-5 1-5 5V213c.333 2 1.8 6 5 6h12M640.5 196.5c1-.667 3.8-2.5 7-2.5s6 1.333 7 2.5M667.5 196.5c1-.667 3.8-2.5 7-2.5s6 1.333 7 2.5M651.5 223.5c1.333 1.667 5.1 5 9.5 5s8.833-3.333 10.5-5M671 236h16c5-1.5 15-6.9 15-16.5M618.5 329.5V311c0-3.333-2.4-10-12-10H589M703.5 329.5V314c0-5 0-10.5 9-12l9.5-2c2.5-.333 7.1-.2 9.5-5m18.5-14.5h26c4.167.667 12.5-1.2 12.5-14h-25c-4.5.5-13.5 4-13.5 14z" stroke="#FBB000" stroke-width="4" stroke-linecap="round" stroke-linejoin="round"/><path d="M752.5 280.5l-13 14.5c-2.667 1.167-8 2-8-4v-10.5c-.167-4.167-3.5-13.4-15.5-17l-21-4c-4.5-.5-13.5-4.8-13.5-18" stroke="#FBB000" stroke-width="4" stroke-linecap="round" stroke-linejoin="round"/><path d="M629 258.5c4 5.167 15.9 15.5 31.5 15.5s27.167-10.333 31-15.5" stroke="#FBB000" stroke-width="4" stroke-linecap="round" stroke-linejoin="round"/><path d="M83 88.062C113.927 63.602 153.008 49 195.5 49 295.74 49 377 130.26 377 230.5S295.74 412 195.5 412 14 330.74 14 230.5c0-15.713 1.997-30.96 5.75-45.5M495.832 181c-4.45 15.735-6.832 32.34-6.832 49.5C489 330.74 570.26 412 670.5 412S852 330.74 852 230.5 770.74 49 670.5 49c-65.621 0-123.108 34.824-154.989 87M970.552 182c-4.27 15.438-6.552 31.703-6.552 48.5 0 100.24 81.26 181.5 181.5 181.5S1327 330.74 1327 230.5 1245.74 49 1145.5 49c-41.58 0-79.9 13.983-110.5 37.502" stroke="#FBB000" stroke-width="8"/><path d="M780 55S817 1 900 1s127 54 127 54" stroke="#F59A23" stroke-width="2" stroke-dasharray="8 6"/><path d="M1026.77 54.787c-2.4 2.4-7.77 4.963-7.77 4.963s5.64.245 8.84 1.045c3.2.8 8.85 3.874 8.85 3.874s-2.77-5.44-3.91-8.832c-1.06-3.18-1.07-8.837-1.07-8.837s-2.54 5.387-4.94 7.787z" fill="#F59A23"/><path d="M1036.69 410.669s-37.004 54-120.004 54-127-54-127-54" stroke="#F59A23" stroke-width="2" stroke-dasharray="8 6"/><path d="M789.917 410.882c2.4-2.4 7.769-4.963 7.769-4.963s-5.64-.245-8.84-1.045c-3.2-.8-8.846-3.874-8.846-3.874s2.767 5.44 3.904 8.832c1.067 3.18 1.076 8.837 1.076 8.837s2.537-5.387 4.937-7.787z" fill="#F59A23"/><path d="M305 55S342 1 425 1s127 54 127 54" stroke="#F59A23" stroke-width="2" stroke-dasharray="8 6"/><path d="M551.77 54.787c-2.4 2.4-7.77 4.963-7.77 4.963s5.641.245 8.841 1.045c3.2.8 8.845 3.874 8.845 3.874s-2.767-5.44-3.904-8.832c-1.066-3.18-1.076-8.837-1.076-8.837s-2.536 5.387-4.936 7.787z" fill="#F59A23"/><path d="M561.686 410.669s-37 54-120 54-127-54-127-54" stroke="#F59A23" stroke-width="2" stroke-dasharray="8 6"/><path d="M314.917 410.882c2.4-2.4 7.769-4.963 7.769-4.963s-5.64-.245-8.84-1.045c-3.2-.8-8.846-3.874-8.846-3.874s2.767 5.44 3.904 8.832c1.067 3.18 1.076 8.837 1.076 8.837s2.537-5.387 4.937-7.787z" fill="#F59A23"/><path d="M951.045 123h-2.988v-12.094h-13.536V123h-2.988V97.3h2.988v10.934h13.536V97.301h2.988V123zM972.438 123h-14.327V97.3h14.327v2.655H961.1v8.279h10.652v2.637H961.1v9.457h11.338V123zM994.305 123l-3.2-8.174h-10.3L977.641 123h-3.024l10.16-25.805h2.514L997.398 123h-3.093zm-4.131-10.863l-2.988-7.963c-.387-1.008-.786-2.244-1.196-3.709a33.46 33.46 0 01-1.107 3.709l-3.024 7.963h8.315zM1003.92 112.312V123h-2.99V97.3h7.05c3.15 0 5.48.604 6.98 1.811 1.51 1.207 2.27 3.024 2.27 5.45 0 3.398-1.73 5.695-5.17 6.89l6.98 11.549h-3.54l-6.22-10.688h-5.36zm0-2.566h4.1c2.1 0 3.65-.416 4.64-1.248.98-.844 1.47-2.103 1.47-3.779 0-1.699-.5-2.924-1.51-3.674-1-.75-2.6-1.125-4.82-1.125h-3.88v9.826zM1023.19 123V97.3h2.98V123h-2.98zM1053.31 123h-3.41l-14.04-21.568h-.14c.19 2.531.28 4.851.28 6.961V123h-2.76V97.3h3.38l14 21.481h.15c-.03-.316-.08-1.33-.16-3.041-.08-1.722-.11-2.953-.09-3.691V97.301h2.79V123zM1071.68 109.535h8.74v12.498c-1.36.434-2.74.762-4.15.985-1.4.222-3.03.334-4.89.334-3.89 0-6.92-1.155-9.08-3.463-2.17-2.321-3.26-5.567-3.26-9.739 0-2.671.54-5.009 1.6-7.013 1.08-2.016 2.63-3.551 4.65-4.606 2.01-1.066 4.37-1.6 7.08-1.6 2.74 0 5.3.505 7.66 1.512l-1.16 2.637c-2.32-.984-4.55-1.477-6.69-1.477-3.13 0-5.58.932-7.33 2.795-1.76 1.864-2.64 4.448-2.64 7.752 0 3.469.84 6.1 2.53 7.893 1.7 1.793 4.19 2.689 7.47 2.689 1.78 0 3.52-.205 5.22-.615v-7.91h-5.75v-2.672zM950.939 146.301v16.629c0 2.929-.884 5.232-2.654 6.908-1.769 1.676-4.201 2.514-7.295 2.514-3.094 0-5.49-.844-7.189-2.532-1.688-1.687-2.531-4.008-2.531-6.961v-16.558h2.988v16.769c0 2.145.586 3.791 1.758 4.94 1.172 1.148 2.894 1.722 5.168 1.722 2.168 0 3.837-.574 5.009-1.722 1.172-1.16 1.758-2.819 1.758-4.975v-16.734h2.988zM972.262 165.162c0 2.262-.821 4.026-2.461 5.291-1.641 1.266-3.867 1.899-6.68 1.899-3.047 0-5.391-.393-7.031-1.178v-2.883c1.055.445 2.203.797 3.445 1.055 1.242.258 2.473.386 3.692.386 1.992 0 3.492-.375 4.5-1.125 1.007-.761 1.511-1.816 1.511-3.164 0-.89-.181-1.617-.545-2.179-.351-.575-.949-1.102-1.793-1.582-.832-.481-2.103-1.026-3.814-1.635-2.391-.856-4.102-1.869-5.133-3.041-1.019-1.172-1.529-2.701-1.529-4.588 0-1.98.744-3.557 2.232-4.729 1.489-1.171 3.457-1.757 5.906-1.757 2.555 0 4.905.468 7.049 1.406l-.931 2.601c-2.121-.89-4.184-1.335-6.188-1.335-1.582 0-2.818.339-3.709 1.019-.89.68-1.336 1.623-1.336 2.83 0 .891.164 1.623.492 2.197.329.563.879 1.084 1.653 1.565.785.469 1.98.99 3.586 1.564 2.695.961 4.547 1.992 5.554 3.094 1.02 1.102 1.53 2.531 1.53 4.289zM991.844 172h-14.326v-25.699h14.326v2.654h-11.338v8.279h10.652v2.637h-10.652v9.457h11.338V172zM1000.54 161.312V172h-2.983v-25.699h7.053c3.15 0 5.47.603 6.97 1.81 1.52 1.207 2.27 3.024 2.27 5.45 0 3.398-1.72 5.695-5.17 6.89l6.98 11.549h-3.53l-6.22-10.688h-5.37zm0-2.566h4.1c2.11 0 3.66-.416 4.64-1.248.99-.844 1.48-2.103 1.48-3.779 0-1.699-.51-2.924-1.51-3.674s-2.61-1.125-4.82-1.125h-3.89v9.826zM410.84 110.115c0 4.114-1.043 7.348-3.129 9.703-2.074 2.356-4.963 3.534-8.666 3.534-3.785 0-6.709-1.155-8.772-3.463-2.05-2.321-3.076-5.59-3.076-9.809 0-4.184 1.032-7.424 3.094-9.721 2.063-2.308 4.992-3.462 8.789-3.462 3.691 0 6.574 1.171 8.649 3.515 2.074 2.344 3.111 5.578 3.111 9.703zm-20.479 0c0 3.481.739 6.123 2.215 7.928 1.488 1.793 3.645 2.689 6.469 2.689 2.848 0 4.998-.896 6.451-2.689 1.453-1.793 2.18-4.436 2.18-7.928 0-3.457-.727-6.076-2.18-7.857-1.441-1.793-3.58-2.69-6.416-2.69-2.848 0-5.016.903-6.504 2.707-1.476 1.793-2.215 4.407-2.215 7.84zM436.662 123h-3.41l-14.045-21.568h-.141a94.55 94.55 0 01.282 6.961V123h-2.76V97.3h3.375l14.01 21.481h.14c-.023-.316-.076-1.33-.158-3.041-.082-1.722-.111-2.953-.088-3.691V97.301h2.795V123zM443.729 123V97.3h2.988v22.993h11.338V123h-14.326zM462.432 123V97.3h2.988V123h-2.988zM492.561 123h-3.411l-14.045-21.568h-.14a95.07 95.07 0 01.281 6.961V123h-2.76V97.3h3.375l14.01 21.481h.141c-.024-.316-.076-1.33-.158-3.041-.083-1.722-.112-2.953-.088-3.691V97.301h2.795V123zM513.953 123h-14.326V97.3h14.326v2.655h-11.338v8.279h10.653v2.637h-10.653v9.457h11.338V123zM388.533 172v-25.699h2.988V172h-2.988zM418.662 172h-3.41l-14.045-21.568h-.141a94.55 94.55 0 01.282 6.961V172h-2.76v-25.699h3.375l14.01 21.48h.14c-.023-.316-.076-1.33-.158-3.041-.082-1.722-.111-2.953-.088-3.691v-14.748h2.795V172zM433.639 172h-2.989v-23.045h-8.138v-2.654h19.265v2.654h-8.138V172zM459.988 172h-14.326v-25.699h14.326v2.654H448.65v8.279h10.653v2.637H448.65v9.457h11.338V172zM468.689 161.312V172h-2.988v-25.699h7.049c3.152 0 5.479.603 6.979 1.81 1.511 1.207 2.267 3.024 2.267 5.45 0 3.398-1.723 5.695-5.168 6.89L483.807 172h-3.534l-6.222-10.688h-5.362zm0-2.566h4.096c2.11 0 3.656-.416 4.641-1.248.984-.844 1.476-2.103 1.476-3.779 0-1.699-.504-2.924-1.511-3.674-.996-.75-2.602-1.125-4.817-1.125h-3.885v9.826zM504.25 153.789c0 2.602-.891 4.606-2.672 6.012-1.769 1.394-4.307 2.092-7.611 2.092h-3.024V172h-2.988v-25.699h6.662c6.422 0 9.633 2.496 9.633 7.488zm-13.307 5.537h2.69c2.648 0 4.564-.428 5.748-1.283 1.183-.855 1.775-2.227 1.775-4.113 0-1.7-.556-2.965-1.67-3.797-1.113-.832-2.847-1.248-5.203-1.248h-3.34v10.441zM512.635 161.312V172h-2.989v-25.699h7.049c3.153 0 5.479.603 6.979 1.81 1.512 1.207 2.267 3.024 2.267 5.45 0 3.398-1.722 5.695-5.168 6.89L527.752 172h-3.533l-6.223-10.688h-5.361zm0-2.566h4.095c2.11 0 3.657-.416 4.641-1.248.984-.844 1.477-2.103 1.477-3.779 0-1.699-.504-2.924-1.512-3.674-.996-.75-2.602-1.125-4.816-1.125h-3.885v9.826zM546.227 172H531.9v-25.699h14.327v2.654h-11.338v8.279h10.652v2.637h-10.652v9.457h11.338V172zM559.85 172h-2.989v-23.045h-8.138v-2.654h19.265v2.654h-8.138V172zM586.199 172h-14.326v-25.699h14.326v2.654h-11.338v8.279h10.653v2.637h-10.653v9.457h11.338V172zM594.9 161.312V172h-2.988v-25.699h7.049c3.152 0 5.478.603 6.978 1.81 1.512 1.207 2.268 3.024 2.268 5.45 0 3.398-1.723 5.695-5.168 6.89L610.018 172h-3.534l-6.222-10.688H594.9zm0-2.566h4.096c2.109 0 3.656-.416 4.641-1.248.984-.844 1.476-2.103 1.476-3.779 0-1.699-.504-2.924-1.511-3.674-.997-.75-2.602-1.125-4.817-1.125H594.9v9.826zM21.047 109.904c0 4.242-1.154 7.489-3.463 9.739-2.297 2.238-5.607 3.357-9.932 3.357H.533V97.3h7.875c3.996 0 7.102 1.108 9.317 3.323 2.214 2.215 3.322 5.309 3.322 9.281zm-3.164.106c0-3.352-.844-5.877-2.531-7.576-1.676-1.7-4.172-2.55-7.489-2.55H3.521v20.532h3.64c3.562 0 6.24-.873 8.032-2.619 1.793-1.758 2.69-4.354 2.69-7.787zM41.121 123H26.795V97.3H41.12v2.655H29.783v8.279h10.652v2.637H29.783v9.457h11.338V123zM62.988 123l-3.199-8.174h-10.3L46.323 123h-3.023l10.16-25.805h2.514L66.082 123h-3.094zm-4.13-10.863l-2.989-7.963c-.387-1.008-.785-2.244-1.195-3.709a33.318 33.318 0 01-1.108 3.709l-3.023 7.963h8.314zM72.603 123h-2.988V97.3h14.326v2.655H72.603v9.404h10.653v2.655H72.603V123zM19.94 146.301v16.629c0 2.929-.885 5.232-2.655 6.908-1.77 1.676-4.201 2.514-7.295 2.514-3.094 0-5.49-.844-7.19-2.532-1.687-1.687-2.53-4.008-2.53-6.961v-16.558h2.988v16.769c0 2.145.586 3.791 1.758 4.94 1.171 1.148 2.894 1.722 5.168 1.722 2.168 0 3.838-.574 5.01-1.722 1.171-1.16 1.757-2.819 1.757-4.975v-16.734h2.988zM41.262 165.162c0 2.262-.82 4.026-2.461 5.291-1.64 1.266-3.867 1.899-6.68 1.899-3.047 0-5.39-.393-7.031-1.178v-2.883a18.55 18.55 0 003.445 1.055c1.242.258 2.473.386 3.692.386 1.992 0 3.492-.375 4.5-1.125 1.007-.761 1.511-1.816 1.511-3.164 0-.89-.181-1.617-.545-2.179-.351-.575-.949-1.102-1.793-1.582-.832-.481-2.103-1.026-3.814-1.635-2.39-.856-4.102-1.869-5.133-3.041-1.02-1.172-1.53-2.701-1.53-4.588 0-1.98.745-3.557 2.233-4.729 1.489-1.171 3.457-1.757 5.907-1.757 2.554 0 4.904.468 7.048 1.406l-.931 2.601c-2.121-.89-4.184-1.335-6.188-1.335-1.582 0-2.818.339-3.709 1.019-.89.68-1.336 1.623-1.336 2.83 0 .891.164 1.623.492 2.197.329.563.88 1.084 1.653 1.565.785.469 1.98.99 3.586 1.564 2.695.961 4.547 1.992 5.554 3.094 1.02 1.102 1.53 2.531 1.53 4.289zM60.844 172H46.518v-25.699h14.326v2.654H49.506v8.279h10.652v2.637H49.506v9.457h11.338V172zM69.545 161.312V172h-2.988v-25.699h7.049c3.152 0 5.478.603 6.978 1.81 1.512 1.207 2.268 3.024 2.268 5.45 0 3.398-1.723 5.695-5.168 6.89L84.662 172H81.13l-6.223-10.688h-5.361zm0-2.566h4.096c2.109 0 3.656-.416 4.64-1.248.985-.844 1.477-2.103 1.477-3.779 0-1.699-.504-2.924-1.512-3.674-.996-.75-2.602-1.125-4.816-1.125h-3.885v9.826z" fill="#FBB000"/></svg>