<svg width="45" height="58" fill="none" xmlns="http://www.w3.org/2000/svg"><path d="M25.268 46h-4.48c-.011.215-.023.408-.023.612 0 2.321-.01 4.643 0 6.965 0 1.438-.519 2.582-1.794 3.295-2.144 1.19-4.717-.407-4.774-2.967-.045-2.016-.011-4.043-.011-6.059v-1.868c-.711 0-1.366-.034-2.01.01-2.279.137-3.994-1.619-3.983-3.997.011-5.38 0-10.759 0-16.138 0-1.948.011-3.884-.011-5.832 0-.43.101-.59.564-.59 9.514.012 19.028.012 28.542 0 .406 0 .553.103.553.533-.011 7.384-.011 14.757-.011 22.14 0 2.22-1.682 4.01-3.928 3.885-.654-.034-1.309-.011-2.02-.011-.011.237-.034.441-.034.645v7.022c0 1.46-.575 2.616-1.896 3.284-2.054 1.042-4.548-.42-4.65-2.797-.101-2.47-.034-4.938-.045-7.418.011-.238.011-.453.011-.714z" fill="#020202"/><path d="M37.81 17.386H8.16c.27-5.482 2.843-9.533 7.607-12.33-.43-.81-.836-1.587-1.253-2.375A58.897 58.897 0 0013.509.828c-.17-.3-.237-.577.102-.766.327-.178.496.055.643.333.689 1.298 1.388 2.575 2.088 3.873.068.122.147.244.248.4 4.267-1.843 8.534-1.854 12.868.01.338-.632.688-1.253 1.027-1.886L31.772.395c.146-.266.338-.533.632-.31.146.11.203.52.113.698-.599 1.21-1.253 2.398-1.897 3.585-.113.211-.225.422-.36.7 3.385 1.897 5.733 4.638 6.93 8.268.428 1.298.677 2.64.62 4.05zm-6.682-6.87c0-.743-.53-1.287-1.241-1.31a1.271 1.271 0 00-1.298 1.266c-.012.755.53 1.354 1.253 1.354.767.011 1.286-.533 1.286-1.31zm-14.944 1.31c.723-.011 1.253-.577 1.253-1.354-.011-.721-.564-1.276-1.275-1.265-.7 0-1.242.566-1.253 1.298-.012.777.53 1.332 1.275 1.321z" fill="#000"/><path d="M44.99 29.198v7.233c0 1.391-.588 2.457-1.731 3.096-1.857 1.043-4.05-.292-4.353-2.613a6.433 6.433 0 01-.042-.785V22.22c0-1.177.283-2.22 1.143-3.005.902-.808 1.92-1.043 3.032-.55 1.1.494 1.72 1.424 1.92 2.67.041.291.041.594.041.897 0 2.332 0 4.654-.01 6.965zM6.136 29.162v7.08c0 1.415-.503 2.561-1.678 3.258-1.93 1.135-4.3-.36-4.436-2.787-.042-.708-.01-1.427-.01-2.135V21.937c0-1.517.775-2.81 1.95-3.304 1.898-.798 4.07.63 4.132 2.82.074 2.562.021 5.124.021 7.698 0 .01.01.01.021.01z" fill="#020202"/></svg>