<svg width="46" height="55" xmlns="http://www.w3.org/2000/svg"><g fill="#020202" fill-rule="nonzero"><path d="M32.973 0c.393 7.306-3.47 12.456-10.973 13 .256-7.558 4.456-11.377 10.973-13z"/><path d="M38.32 28.92c0-4.577 2.444-8.594 6.122-10.865-3.279-3.37-6.443-5.525-11.951-4.967-3.277.331-5.97 2.16-8.883 2.177-5.495.034-9.494-3.347-14.878-1.306C3.659 15.88.486 21.754.07 27.46c-.715 9.777 4.19 21.034 9.548 25.48.942.78 2.82 1.75 3.997 1.959 3.212.57 5.187-1.462 8.66-1.96 4.73-.678 8.14 2.495 12.214 1.96 6.324-.83 9.343-9.403 11.511-14.29-4.53-2.018-7.68-6.493-7.68-11.69z"/></g></svg>