<svg width="28" height="37" fill="none" xmlns="http://www.w3.org/2000/svg"><g clip-path="url(#clip0)" fill="#000" stroke="#000" stroke-width=".7"><path d="M26.061 13.754c.07-.52.248-1.02.524-1.465.428-.618.618-1.37.534-2.116-.195-.731-.89-1.179-1.56-1.613a3.61 3.61 0 01-1.145-.961 3.659 3.659 0 01-.27-1.5 3.148 3.148 0 00-.609-2.132 3.141 3.141 0 00-2.13-.609 3.65 3.65 0 01-1.5-.27 3.6 3.6 0 01-.962-1.145c-.433-.671-.882-1.365-1.612-1.56a3.239 3.239 0 00-2.116.533 3.7 3.7 0 01-1.465.525 3.7 3.7 0 01-1.462-.516 3.244 3.244 0 00-2.116-.533c-.73.195-1.179.889-1.613 1.56a3.6 3.6 0 01-.96 1.145 3.659 3.659 0 01-1.5.27 3.148 3.148 0 00-2.133.609 3.141 3.141 0 00-.609 2.131 3.645 3.645 0 01-.27 1.5 3.6 3.6 0 01-1.145.961c-.67.434-1.365.882-1.56 1.613a3.11 3.11 0 00.534 2.116 3.7 3.7 0 01.524 1.465 3.7 3.7 0 01-.524 1.465 3.1 3.1 0 00-.533 2.116c.2.731.89 1.178 1.56 1.613a3.6 3.6 0 011.145.96c.194.476.286.987.27 1.5-.062.76.154 1.518.61 2.131.612.455 1.37.672 2.13.609a5.37 5.37 0 011.21.153.305.305 0 00-.044.059l-3.726 8.076a.355.355 0 00.238.492c.068.017.14.013.205-.012l3.42-1.259 1.26 3.419a.356.356 0 00.316.231h.014a.354.354 0 00.321-.2l4.154-9a1.41 1.41 0 01.285-.038c.42.042.828.175 1.193.388v.035l2.956 9.608a.355.355 0 00.3.248h.033a.352.352 0 00.312-.188l1.706-3.221 3.22 1.7a.353.353 0 00.5-.416l-3.076-10.052c.167-.014.338-.025.51-.035a3.149 3.149 0 002.132-.609c.456-.613.672-1.37.61-2.131a3.655 3.655 0 01.27-1.5 3.6 3.6 0 011.144-.961c.67-.433 1.365-.882 1.56-1.612a3.108 3.108 0 00-.534-2.116 3.683 3.683 0 01-.526-1.461zM9.026 34.025l-1.087-2.95a.352.352 0 00-.454-.209l-2.95 1.086 3.363-7.286c.246.276.466.575.657.891.434.67.882 1.365 1.612 1.56a3.259 3.259 0 002.116-.534l.23-.115-3.487 7.557zm14.026-.413l-2.777-1.471a.348.348 0 00-.39.04.352.352 0 00-.087.107l-1.472 2.78-2.523-8.2c.353.178.74.28 1.134.3.133 0 .265-.016.394-.05.731-.2 1.18-.89 1.612-1.56.237-.445.564-.834.96-1.145.09-.05.185-.089.284-.117l2.865 9.316zm3.38-16.461c-.126.468-.7.841-1.26 1.2-.544.29-1.013.7-1.373 1.2a4.088 4.088 0 00-.365 1.812 2.68 2.68 0 01-.4 1.668 2.677 2.677 0 01-1.669.4 4.086 4.086 0 00-1.812.365c-.5.36-.91.829-1.2 1.372-.36.558-.734 1.135-1.2 1.26a.82.82 0 01-.212.027 3.548 3.548 0 01-1.4-.507 4.157 4.157 0 00-1.786-.6 4.154 4.154 0 00-1.785.6 2.7 2.7 0 01-1.613.48c-.468-.125-.84-.7-1.2-1.26a4.037 4.037 0 00-1.2-1.371 4.092 4.092 0 00-1.813-.365 2.684 2.684 0 01-1.669-.4 2.677 2.677 0 01-.4-1.668 4.08 4.08 0 00-.365-1.813c-.36-.5-.83-.91-1.373-1.2-.559-.361-1.136-.734-1.26-1.2-.02-.576.149-1.143.48-1.614.334-.541.54-1.152.6-1.785a4.152 4.152 0 00-.6-1.785 2.658 2.658 0 01-.48-1.613c.124-.468.7-.841 1.26-1.2.543-.29 1.013-.7 1.373-1.2.259-.569.383-1.19.364-1.814a2.68 2.68 0 01.4-1.668 2.678 2.678 0 011.67-.4 4.09 4.09 0 001.812-.364c.5-.36.91-.83 1.2-1.373.361-.559.734-1.136 1.2-1.261a2.716 2.716 0 011.614.481c.541.334 1.152.54 1.785.6a4.158 4.158 0 001.786-.6 2.713 2.713 0 011.613-.481c.467.125.84.7 1.2 1.26.29.543.7 1.013 1.2 1.373a4.1 4.1 0 001.814.365 2.68 2.68 0 011.668.4c.313.497.454 1.084.4 1.669a4.092 4.092 0 00.365 1.813c.36.5.83.91 1.372 1.2.558.361 1.135.735 1.26 1.2.02.576-.149 1.142-.48 1.614a4.173 4.173 0 00-.6 1.785c.061.633.266 1.244.6 1.785.332.471.5 1.038.482 1.614l-.004-.001z"/><path d="M13.752 3.409a10.152 10.152 0 00-10.344 9.922 10.151 10.151 0 0010.344 9.922 10.152 10.152 0 0010.344-9.922 10.152 10.152 0 00-10.344-9.922zm0 19.16a9.451 9.451 0 01-9.631-9.238 9.45 9.45 0 019.631-9.238 9.451 9.451 0 019.631 9.238 9.452 9.452 0 01-9.631 9.238v0z"/><path d="M17.858 13.408h-8.21a.342.342 0 000 .684h8.21a.342.342 0 100-.684v0zM15.121 16.236h-2.737a.342.342 0 000 .684h2.737a.342.342 0 100-.684v0zM17.858 10.581h-8.21a.342.342 0 100 .684h8.21a.342.342 0 100-.684v0z"/></g><defs><clipPath id="clip0"><path fill="#fff" d="M0 0h27.508v36.691H0z"/></clipPath></defs></svg>