<svg xmlns="http://www.w3.org/2000/svg" width="42.506" height="32.308"><g stroke="#000" stroke-width=".5"><path data-name="Path 56" d="M27.826 25.631a4.278 4.278 0 01-1.178 1.019l.3 3.8c0 .1.034.164.034.23l-.2-.1-8.811-4.525a1.419 1.419 0 00-.639-.164 1.539 1.539 0 00-.639.164l-8.81 4.527-.2.1a.625.625 0 01.034-.23l1.682-9.575a1.242 1.242 0 00-.4-1.148l-7.1-6.788c-.067-.066-.1-.131-.168-.164.067 0 .135-.033.235-.033l9.854-1.41a1.346 1.346 0 001.009-.721l4.405-8.723.1-.2.1.2 4.406 8.69a1.346 1.346 0 001.009.721l4.3.623a24.88 24.88 0 011.48-1.115l-5.616-.787-4.372-8.69C18.271.611 17.8.25 17.329.25s-.942.361-1.312 1.082l-4.401 8.718-9.854 1.382c-1.648.23-1.984 1.344-.807 2.459l7.13 6.788-1.682 9.571c-.2 1.148.235 1.8 1.043 1.8a2.551 2.551 0 001.076-.3l8.812-4.512 8.811 4.525a2.551 2.551 0 001.076.3c.807 0 1.244-.656 1.043-1.8z"/><path data-name="Path 57" d="M39.832 8.577a.974.974 0 01.3.032c1.513.289 1.446 2.791-.37 3.048a18.478 18.478 0 00-13.99 11.037 1.421 1.421 0 01-1.379.834 1.32 1.32 0 01-.37-.032 1.469 1.469 0 01-1.211-.995 11.264 11.264 0 00-4.17-6.32c-1.278-.995-.168-2.631 1.143-2.631a.974.974 0 01.3.032 2.3 2.3 0 01.706.321 14 14 0 013.741 4.332 22.032 22.032 0 0115.033-9.593.823.823 0 01.269-.064m0-.962a1.714 1.714 0 00-.4.032 23.142 23.142 0 00-14.865 8.759 14.091 14.091 0 00-3.161-3.272 2.8 2.8 0 00-1.143-.513 2.714 2.714 0 00-.5-.064 2.824 2.824 0 00-2.59 1.765 2.221 2.221 0 00.807 2.567 10.271 10.271 0 013.834 5.839 2.476 2.476 0 001.984 1.7 3.877 3.877 0 00.605.064 2.435 2.435 0 002.321-1.444 17.435 17.435 0 0113.206-10.434 2.657 2.657 0 002.321-2.5 2.343 2.343 0 00-1.883-2.438 3.508 3.508 0 00-.538-.062z"/></g></svg>