<svg width="54" height="54" xmlns="http://www.w3.org/2000/svg"><g fill="none" fill-rule="evenodd"><circle fill="#FFF" cx="27" cy="27" r="26"/><path d="M27 0c14.912 0 27 12.088 27 27S41.912 54 27 54 0 41.912 0 27 12.088 0 27 0zm0 2C13.193 2 2 13.193 2 27s11.193 25 25 25 25-11.193 25-25S40.807 2 27 2z" fill="#FBB000"/><path d="M40.56 35.959c-.124.657-.342 1.493-.654 2.506-.514 1.238-1.325 1.994-2.433 2.27l-.499.12-.422.093c-1.992.41-5.518.726-9.584-1.979-3.022-2.01-5.058-3.783-6.612-5.45-1.554-1.666-3.18-3.82-4.975-6.975-2.848-5.008-1.555-8.973-1.027-10.602.351-1.086 1.162-1.842 2.433-2.27l.661-.148c.74-.158 1.368-.268 1.885-.328.616-.071 1.172.26 1.666.996l.113.176 1.857 5.934c.173.702-.178 1.463-1.056 2.28-1.258.927-1.756 1.703-1.492 2.326l.048.097c.917 1.948 2.075 3.671 3.473 5.17a19.907 19.907 0 004.451 3.56l.465.267c.613.405 1.452-.019 2.518-1.272.877-.818 1.66-1.116 2.348-.894l5.79 2.266c.82.58 1.168 1.2 1.045 1.857z" fill="#FBB000"/></g></svg>