<svg width="36" height="36" fill="none" xmlns="http://www.w3.org/2000/svg"><path fill-rule="evenodd" clip-rule="evenodd" d="M18 0c9.934 0 18 8.066 18 18s-8.066 18-18 18S0 27.934 0 18 8.066 0 18 0zm0 6.75c-3.055 0-3.438.013-4.638.068-1.198.054-2.016.245-2.731.523a5.514 5.514 0 00-1.993 1.297 5.515 5.515 0 00-1.297 1.993c-.279.715-.469 1.533-.523 2.73-.055 1.2-.068 1.584-.068 4.639s.013 3.438.068 4.638c.054 1.198.244 2.016.523 2.731.287.74.672 1.367 1.297 1.993a5.514 5.514 0 001.993 1.297c.715.279 1.533.469 2.73.523 1.2.055 1.584.068 4.639.068s3.438-.013 4.638-.068c1.198-.054 2.016-.244 2.731-.523a5.515 5.515 0 001.993-1.297 5.515 5.515 0 001.297-1.993c.279-.715.469-1.533.523-2.73.055-1.2.068-1.584.068-4.639s-.013-3.438-.068-4.638c-.054-1.198-.244-2.016-.523-2.731a5.514 5.514 0 00-1.297-1.993 5.516 5.516 0 00-1.993-1.297c-.715-.278-1.533-.469-2.73-.523-1.2-.055-1.584-.068-4.639-.068zm0 2.027c3.004 0 3.36.012 4.546.066 1.097.05 1.692.233 2.089.387.525.204.9.448 1.293.842.394.393.638.768.842 1.293.154.396.337.992.387 2.089.055 1.186.066 1.542.066 4.546 0 3.004-.011 3.36-.066 4.546-.05 1.097-.233 1.692-.387 2.089-.204.525-.448.9-.842 1.293a3.482 3.482 0 01-1.293.842c-.397.154-.992.337-2.089.387-1.186.055-1.542.066-4.546.066-3.004 0-3.36-.011-4.546-.066-1.097-.05-1.693-.233-2.089-.387a3.483 3.483 0 01-1.293-.842 3.484 3.484 0 01-.842-1.293c-.154-.397-.337-.992-.387-2.089-.055-1.186-.066-1.542-.066-4.546 0-3.004.011-3.36.066-4.546.05-1.097.233-1.693.387-2.089.204-.525.448-.9.841-1.293a3.485 3.485 0 011.294-.842c.396-.154.992-.337 2.089-.387 1.186-.054 1.542-.066 4.546-.066zm0 3.446a5.777 5.777 0 100 11.554 5.777 5.777 0 000-11.554zm0 9.527a3.75 3.75 0 110-7.5 3.75 3.75 0 010 7.5zm7.355-9.755a1.35 1.35 0 11-2.7 0 1.35 1.35 0 012.7 0z" fill="#000"/></svg>