<svg width="36" height="36" fill="none" xmlns="http://www.w3.org/2000/svg"><path fill-rule="evenodd" clip-rule="evenodd" d="M18 0c9.941 0 18 8.059 18 18s-8.059 18-18 18S0 27.941 0 18 8.059 0 18 0zM6.48 9.277A2.793 2.793 0 019.27 6.48a2.794 2.794 0 012.792 2.797 2.794 2.794 0 01-2.791 2.796A2.793 2.793 0 016.48 9.277zm17.409 4.486v-.002c.315.002.637.017 1.07.044 2.105.13 4.45 1.778 4.52 5.639.047 2.68.043 6.68.04 8.983v1.093h-4.787c0-.86.004-2.133.009-3.528.006-1.685.012-3.547.012-5.065 0-1.262-.565-2.96-2.579-2.96-2.218 0-2.759 2.066-2.759 2.96 0 1.483-.007 3.455-.013 5.203-.005 1.392-.01 2.642-.01 3.39h-4.757c0-1.434.008-4.626.015-7.793.008-3.117.015-6.21.015-7.579a1405.365 1405.365 0 004.533-.006c0 .488-.003.888-.005 1.257l-.003.91c.75-1.517 2.8-2.468 3.678-2.513.4-.021.706-.034 1.02-.033zM6.882 29.513V14.208h4.77v15.303h-4.77z" fill="#000"/></svg>