<svg width="36" height="36" fill="none" xmlns="http://www.w3.org/2000/svg"><g clip-path="url(#clip0)" fill="#000"><path d="M31.076 5.645a17.992 17.992 0 10-13.556 30.36h.485a17.989 17.989 0 0013.071-30.36zm-2.4 23.636a15.373 15.373 0 01-11.156 4.324 15.56 15.56 0 01-10.915-4.8 15.38 15.38 0 01-4.32-11.162 15.565 15.565 0 014.8-10.918 16.285 16.285 0 0110.92-4.32h.36a15.56 15.56 0 0110.917 4.8 15.38 15.38 0 014.313 11.158 15.2 15.2 0 01-4.918 10.918h-.001z"/><path d="M19.099 8.742a3.354 3.354 0 013.415 3.415 1.139 1.139 0 002.277 0 5.692 5.692 0 10-11.385 0v4.554h-.682a1.141 1.141 0 00-1.138 1.138 1.078 1.078 0 001.138 1.139h.683v3.529c-.114.683-.683 1.025-1.935 1.594l-.342.114a1.23 1.23 0 00-.8 1.594 1.352 1.352 0 001.366 1.138h11.957a1.139 1.139 0 000-2.277h-8.88a3.437 3.437 0 00.911-2.049v-3.643h4.326a1.141 1.141 0 001.138-1.138 1.075 1.075 0 00-1.138-1.138h-4.327v-4.555a3.356 3.356 0 013.416-3.415z"/></g><defs><clipPath id="clip0"><path fill="#fff" d="M0 0h36v36H0z"/></clipPath></defs></svg>