<svg xmlns="http://www.w3.org/2000/svg" width="36" height="29.687"><g data-name="Group 174"><path data-name="Path 79" d="M6.184 22.106h4.652a.883.883 0 01.883.882v4.933h1.239v-8.035a.883.883 0 01.883-.883h4.653a.883.883 0 01.883.883v8.035h1.24V14.847a.883.883 0 01.882-.883h4.653a.883.883 0 01.881.824A71.007 71.007 0 0032.995 9.6H29.41a.883.883 0 010-1.765h5.708a.883.883 0 01.883.882v5.708a.883.883 0 01-1.765 0v-3.577a73.063 73.063 0 01-7.2 6.15v10.923h6.727a.883.883 0 010 1.765H.872a.883.883 0 01-.015-1.765c1.378-.424 2.958-2.334 4.445-3.092v-1.842a.883.883 0 01.883-.882zm-.883 5.816v-1.014c-.431.32-.842.67-1.254 1.014zm4.555-24.65a.883.883 0 011.765 0v.478a3.294 3.294 0 012.4 3.167.883.883 0 01-1.765 0 1.522 1.522 0 10-1.52 1.523 3.287 3.287 0 01.882 6.454v.478a.883.883 0 01-1.765 0v-.478a3.3 3.3 0 01-2.4-3.167.883.883 0 011.765 0 1.522 1.522 0 101.518-1.523 3.287 3.287 0 01-.883-6.454zM10.736 0a9.322 9.322 0 11-9.322 9.322A9.322 9.322 0 0110.736 0zm0 1.765a7.556 7.556 0 107.556 7.556 7.556 7.556 0 00-7.556-7.556zm14.53 13.964h-2.885v12.192h2.888zm-7.658 5.04h-2.884v7.152h2.887zm-7.657 3.1H7.066v4.051h2.888z"/></g></svg>