<svg width="36" height="36" fill="none" xmlns="http://www.w3.org/2000/svg"><path d="M25.412 24.983l3.224 2.364-1.32-3.959 2.785-1.989h-3.51l-1.179-3.431-1.179 3.431h-3.51l2.785 1.989-1.32 3.959 3.224-2.364zm0 2.211l-6.687 4.9 2.675-8.025-6.242-4.453h7.8l2.454-7.133 2.452 7.133h7.8l-6.242 4.458 2.675 8.025-6.685-4.905z" fill="#000"/><path d="M13.375 16.05a5.35 5.35 0 100-10.701 5.35 5.35 0 000 10.701zm-1.282 3.593l2.669 1.907A11.156 11.156 0 001.792 32.1H.007a12.93 12.93 0 0112.085-12.457h.001zm13.4 9.851c.207.854.326 1.727.355 2.606h-1.782a11.195 11.195 0 00-.179-1.6l1.49-1.093.116.087zm-12.118-11.66a7.133 7.133 0 110-14.266 7.133 7.133 0 010 14.266z" fill="#000"/></svg>