<svg xmlns="http://www.w3.org/2000/svg" width="35" height="35"><g data-name="noun_Share Screen_3805239"><g data-name="Layer 20"><path data-name="Path 55" d="M21.417 8.583A.825.825 0 1120.25 9.75l-1.917-1.9v11.317a.833.833 0 01-1.667 0V7.85l-1.917 1.9a.825.825 0 11-1.167-1.167C17.2 5 16.967 5.15 17.183 5a.817.817 0 01.9.183zM35 2.5v20a2.5 2.5 0 01-2.5 2.5h-9.167v5h2.5a2.5 2.5 0 012.5 2.5v1.667A.833.833 0 0127.5 35h-20a.833.833 0 01-.833-.833V32.5a2.5 2.5 0 012.5-2.5h2.5v-5H2.5A2.5 2.5 0 010 22.5v-20A2.5 2.5 0 012.5 0h30A2.5 2.5 0 0135 2.5zm-9.167 29.167H9.167a.833.833 0 00-.833.833v.833h18.333V32.5a.833.833 0 00-.834-.833zM21.667 25h-8.334v5h8.333zM33.333 2.5a.833.833 0 00-.833-.833h-30a.833.833 0 00-.833.833v20a.833.833 0 00.833.833h30a.833.833 0 00.833-.833z"/></g></g></svg>