<svg xmlns="http://www.w3.org/2000/svg" width="42.5" height="24.357"><g data-name="Group 122"><g data-name="Group 121"><path data-name="Path 58" d="M25.752 5.734a6.647 6.647 0 01-.568 2.563 7.354 7.354 0 01-1.554 2.341 3.723 3.723 0 01-2.081 1.114 3.106 3.106 0 01-2.242-.721 6.445 6.445 0 01-1.693-2.1 7.513 7.513 0 01-.837-2.573 4.587 4.587 0 012.294-4.569 4.505 4.505 0 016.68 3.946.453.453 0 00.906 0 5.412 5.412 0 00-10.476-1.9 5.645 5.645 0 00-.259 2.915 8.4 8.4 0 00.965 2.746 7.18 7.18 0 001.828 2.22 4.18 4.18 0 002.531.963 4.12 4.12 0 002.531-.963A8.044 8.044 0 0026.57 6.75a6.673 6.673 0 00.088-1.01.453.453 0 00-.906-.006z" stroke="#000" stroke-width=".5"/></g></g><g data-name="Group 124"><g data-name="Group 123"><path data-name="Path 59" d="M30.735 19.689v3.965l.453-.453H11.311l.453.453v-3.229a9.834 9.834 0 01.042-1.389 4.653 4.653 0 013.769-3.913 10.8 10.8 0 012.016-.072l-.391-.224 3.609 4.927.064.087a.461.461 0 00.783 0l3.586-4.936.057-.078-.391.224h1.25a4.636 4.636 0 014.577 4.637.453.453 0 00.906 0 5.542 5.542 0 00-5.59-5.544h-.907a.665.665 0 00-.646.25l-3.613 4.973-.011.015h.783l-3.609-4.927a.586.586 0 00-.486-.312h-.888a6.153 6.153 0 00-2.495.468 5.6 5.6 0 00-3.3 4.6c-.075.754-.022 1.534-.022 2.29v2.155a.457.457 0 00.453.453h19.878a.457.457 0 00.453-.453v-3.965a.453.453 0 00-.906-.002z" stroke="#000" stroke-width=".5"/></g></g><g data-name="Group 126"><g data-name="Group 125"><path data-name="Path 60" d="M37.478 7.897a5.438 5.438 0 01-.725 2.541 4.255 4.255 0 01-1.827 1.851 2.056 2.056 0 01-1.091.171 2.082 2.082 0 01-.223-.046 2.634 2.634 0 01-.287-.091 3.165 3.165 0 01-.529-.289 5.011 5.011 0 01-1.639-2.117 4.54 4.54 0 01-.424-2.551 3.393 3.393 0 016.745.532.453.453 0 00.906 0A4.3 4.3 0 0030 6.562a5.887 5.887 0 001.472 5.5 3.766 3.766 0 002.413 1.308 3.366 3.366 0 002.5-.993 6.366 6.366 0 002-4.481.454.454 0 00-.907.001z" stroke="#000" stroke-width=".5"/></g></g><g data-name="Group 128"><g data-name="Group 127"><path data-name="Path 61" d="M34.493 19.025l2.825-3.888-.391.224a7.1 7.1 0 011.852.125 3.508 3.508 0 012.06 1.558 3.673 3.673 0 01.506 1.977v2.911l.453-.453h-7.7a.453.453 0 000 .906h7.7a.457.457 0 00.453-.453v-3.037a4.461 4.461 0 00-3.12-4.249 7.106 7.106 0 00-2.166-.189.612.612 0 00-.51.336l-.361.5-2.2 3.03-.182.25a.454.454 0 00.163.62.462.462 0 00.62-.163z" stroke="#000" stroke-width=".5"/></g></g><g data-name="Group 130"><g data-name="Group 129"><path data-name="Path 62" d="M11.8 7.897a5.438 5.438 0 01-.725 2.541 4.255 4.255 0 01-1.827 1.851 2.057 2.057 0 01-1.091.171 2.082 2.082 0 01-.223-.046 2.64 2.64 0 01-.287-.091 3.163 3.163 0 01-.529-.289 5.011 5.011 0 01-1.639-2.117 4.54 4.54 0 01-.424-2.551 3.393 3.393 0 016.745.532.453.453 0 00.906 0 4.3 4.3 0 00-8.384-1.336 5.887 5.887 0 001.472 5.5 3.766 3.766 0 002.413 1.308 3.366 3.366 0 002.5-.993 6.366 6.366 0 002-4.481.454.454 0 00-.907.001z" stroke="#000" stroke-width=".5"/></g></g><g data-name="Group 132"><g data-name="Group 131"><path data-name="Path 63" d="M8.422 21.478H.703l.453.453v-3.037a3.544 3.544 0 013.021-3.5 9.3 9.3 0 011.4-.028l-.395-.233 2.849 3.888a.463.463 0 00.62.163.454.454 0 00.163-.62l-1.826-2.493-.931-1.271c-.13-.177-.251-.349-.5-.349h-.849a4.462 4.462 0 00-4.3 3.231 6.494 6.494 0 00-.159 1.799v2.45a.457.457 0 00.453.453h7.72a.453.453 0 000-.906z" stroke="#000" stroke-width=".5"/></g></g></svg>