<svg width="36" height="36" fill="none" xmlns="http://www.w3.org/2000/svg"><path fill-rule="evenodd" clip-rule="evenodd" d="M36 18c0 9.941-8.059 18-18 18S0 27.941 0 18 8.059 0 18 0s18 8.059 18 18zM16.406 7.256c.299-.027.649-.058.984-.014.305.037.61.036.942.035h.144c.074 0 .168.01.26.054a.47.47 0 01.227.228c.04.085.046.165.049.207v.1c.004.634.006 1.269.008 1.903.002.636.004 1.27.008 1.904V11.91c.002.184.003.375-.002.566.592-.003 1.183-.003 1.774-.003.655 0 1.31 0 1.966-.003h.002c.12 0 .322.015.472.176.143.154.148.35.148.443v.003c-.008.935-.008 1.87 0 2.805v.003c0 .092-.005.29-.15.443-.15.158-.353.17-.462.17h-.002c-.649-.004-1.3-.004-1.952-.004-.602 0-1.206 0-1.808-.003.014 1.912.014 3.824.014 5.741 0 .404.022.794.091 1.163v.001l.001.002c.083.466.388.762.885.934h.003c.694.247 1.39.153 2.138-.099.397-.141.771-.368 1.151-.638l.325-.23.213.335a.627.627 0 01.098.39v.025l-.001.015c0 .937 0 1.872.008 2.808v.003a.721.721 0 01-.075.346.65.65 0 01-.317.283c-.605.29-1.231.558-1.903.74-.457.128-.917.199-1.357.26h-.004a7.855 7.855 0 01-1.143.04h-.004a7.09 7.09 0 01-1.524-.215c-.538-.134-1.072-.33-1.557-.647-.844-.546-1.538-1.272-1.89-2.302v-.003c-.161-.483-.178-.96-.193-1.379v-.023c-.041-1.541-.041-3.086-.041-4.628 0-.768 0-1.536-.005-2.301v-.003l-.003-.237c-.002-.124-.005-.256-.003-.388h-.505c-.288-.002-.569-.003-.866.006-.093.003-.299.007-.459-.141-.165-.153-.174-.364-.174-.471v-.007c.011-.62.01-1.242.008-1.867v-.635c0-.079 0-.237.082-.384a.695.695 0 01.394-.304c.369-.134.72-.346 1.044-.6h.001a5.013 5.013 0 001.605-2.082c.286-.702.454-1.439.549-2.208v-.004l.001-.005a.66.66 0 01.11-.304.534.534 0 01.416-.214c.086-.005.18-.013.28-.022z" fill="#000"/></svg>