<svg width="225" height="39" fill="none" xmlns="http://www.w3.org/2000/svg"><path fill-rule="evenodd" clip-rule="evenodd" d="M39.99 26.774l.001.138c0 3.03-2 6.26-7.803 6.26-2.158 0-3.794-.234-5.207-.58l-.196-.048c-.286-.086-.572-.258-.572-.572V29.17c0-.4.229-.543.515-.543h.085c1.172.115 4.317.343 5.432.343 1.972 0 2.544-.628 2.544-2v-.04c-.013-.805-.424-1.261-1.887-2.133l-4.03-2.395c-2.588-1.56-3.288-3.345-3.288-5.409 0-3.144 1.773-5.574 7.318-5.574 2.023 0 4.797.322 5.955.602l.105.027c.229.057.43.2.43.514v2.887c0 .258-.115.486-.487.486h-.057l-.281-.02c-1.07-.079-3.775-.277-5.552-.293l-.227-.001c-1.63 0-2.23.486-2.23 1.515 0 .8.372 1.172 1.915 2l3.66 1.973c2.913 1.57 3.822 3.412 3.857 5.665zm-35.102 5.57V12.218a.526.526 0 00-.543-.543H.515c-.315 0-.515.229-.515.543v20.124c0 .315.2.572.515.572h3.83c.314 0 .543-.257.543-.572zm17.78-.03v-9.518c0-3.602-.914-6.49-5.06-6.49-1.829 0-3.087.372-4.659 1.487v-.686a.573.573 0 00-.571-.571H9.176a.573.573 0 00-.572.571v15.208c0 .314.286.6.6.6h3.46c.314 0 .571-.286.571-.6V21.052c.972-.514 1.858-.915 2.687-.915 1.744 0 2.116.658 2.116 2.659v9.519c0 .314.257.6.571.6h3.46c.314 0 .6-.286.6-.6zm24.984.03V17.106a.573.573 0 00-.571-.571h-3.488a.573.573 0 00-.572.571v15.236c0 .315.258.572.572.572h3.488a.573.573 0 00.571-.572zm18.324-15.065v1.63c0 .372-.149.497-.446.604l-.069.024-.886.286c.343.514.629 1.43.629 2.115v.229c0 3.716-2.601 5.345-7.06 5.345-1.344 0-2.402-.2-2.974-.428-.314.2-.4.4-.4.657 0 .458.172.658.858.8l3.23.715c4.974 1.087 6.69 1.858 6.69 4.602v.23c0 3.144-2.46 4.659-7.49 4.659-4.746 0-7.261-1.658-7.261-4.66v-.229c0-1.171.486-2.258 1.715-3.201-1.03-.572-1.458-1.715-1.458-2.659 0-1.057.543-1.858 1.258-2.43-.915-.8-1.315-2.258-1.315-3.401v-.229c0-3.23 2.144-5.402 7.146-5.402h7.118c.4 0 .715.343.715.743zm-5.288 4.66v.228l-.001.086c-.026 1.18-.59 1.915-2.544 1.915-2.172 0-2.6-1.03-2.6-2.001v-.229c0-1.172.57-2.058 2.6-2.058 2.03 0 2.544.886 2.544 2.058zm.142 12.148v-.229c0-.525-.348-.89-2.707-1.432l-.237-.054-2.115-.457c-.343.486-.572.943-.572 1.944v.228c0 .972.657 1.458 2.859 1.458h.076c2.201-.013 2.666-.57 2.695-1.374l.001-.084zm21.554-1.772v-9.52c0-3.6-.915-6.488-5.06-6.488-1.83 0-3.087.372-4.66 1.486v-.686a.573.573 0 00-.57-.571h-3.202a.573.573 0 00-.572.571v15.208c0 .314.286.6.6.6h3.459c.314 0 .572-.286.572-.6V21.052l.181-.095c.901-.468 1.729-.82 2.506-.82 1.725 0 2.107.644 2.115 2.594v9.584c0 .314.257.6.572.6h3.459c.314 0 .6-.286.6-.6zm15.922-2.773v2.659c0 .371-.171.514-.571.6-.944.2-3.145.371-4.66.371-3.687 0-6.975-.943-6.975-6.145v-14.78c0-.314.258-.571.572-.571h3.745c.314 0 .571.257.571.572v14.84c.013 1.397.478 1.857 1.721 1.881l.109.001h4.917c.314 0 .571.258.571.572zm14.979 2.801V22.139c0-4.173-2.573-5.831-6.689-5.831-1.887 0-3.888.343-4.945.6-.343.086-.543.315-.543.63v2.315c0 .371.228.514.514.514h.143l.101-.01a59.761 59.761 0 014.544-.19h.1c1.344 0 2.144.343 2.144 1.972v1.03h-1.543c-4.888 0-7.032 1.486-7.032 4.83v.258c0 3.716 2.401 4.916 4.888 4.916 1.715 0 2.858-.485 3.973-1.286v.457c0 .315.257.572.572.572h3.201a.573.573 0 00.572-.572zm-6.889-2.658c.858 0 1.658-.286 2.344-.629v-3.144h-1.629c-2.001 0-2.516.686-2.516 2.087v.257c0 1.163.564 1.414 1.692 1.428l.109.001zm24.384 2.63v-9.52l-.001-.214c-.037-3.501-.997-6.274-5.059-6.274-1.829 0-3.087.372-4.659 1.486v-.686a.574.574 0 00-.572-.571h-3.202a.573.573 0 00-.571.571v15.208c0 .314.285.6.6.6h3.459c.314 0 .571-.286.571-.6V21.052c.972-.514 1.858-.915 2.687-.915 1.744 0 2.116.658 2.116 2.659v9.519c0 .314.257.6.572.6h3.458a.624.624 0 00.601-.6zm18.209-15.036v1.63c0 .372-.149.497-.446.604l-.069.024-.886.286c.343.514.629 1.43.629 2.115v.229c0 3.716-2.601 5.345-7.061 5.345-1.343 0-2.401-.2-2.973-.428-.314.2-.4.4-.4.657 0 .458.172.658.858.8l3.23.715c4.974 1.087 6.689 1.858 6.689 4.602v.23c0 3.144-2.458 4.659-7.489 4.659-4.746 0-7.261-1.658-7.261-4.66v-.229c0-1.171.486-2.258 1.715-3.201-1.029-.572-1.458-1.715-1.458-2.659 0-1.057.543-1.858 1.258-2.43-.915-.8-1.315-2.258-1.315-3.401v-.229c0-3.23 2.144-5.402 7.146-5.402h7.118c.4 0 .715.343.715.743zm-5.289 4.619v.269c0 1.23-.543 2.001-2.544 2.001-2.148 0-2.591-1.006-2.601-1.969v-.26l.001-.082c.026-1.131.618-1.977 2.6-1.977 2.006 0 2.532.866 2.544 2.018zm.143 12.19v-.23c0-.525-.348-.89-2.707-1.432l-.237-.054-2.115-.457c-.343.486-.572.943-.572 1.944v.228c0 .972.657 1.458 2.859 1.458h.076c2.226-.013 2.677-.583 2.696-1.402v-.056zm21.554-1.745V17.136c0-.315-.286-.6-.6-.6h-3.459c-.315 0-.572.285-.572.6v11.263c-.972.514-1.858.914-2.687.914-1.725 0-2.107-.643-2.115-2.593v-9.584c0-.315-.258-.6-.572-.6h-3.459c-.314 0-.6.285-.6.6v9.519c0 3.602.915 6.489 5.06 6.489 1.829 0 3.087-.372 4.659-1.487v.686c0 .315.257.572.572.572h3.201a.573.573 0 00.572-.572zm16.065-10.205v10.205a.573.573 0 01-.572.572h-3.201a.573.573 0 01-.572-.572v-.457c-1.115.8-2.258 1.287-3.973 1.287-2.487 0-4.888-1.201-4.888-4.917v-.258c0-3.344 2.144-4.83 7.032-4.83h1.543v-1.03c0-1.629-.8-1.972-2.144-1.972h-.1a59.761 59.761 0 00-4.544.19l-.101.01h-.143c-.286 0-.514-.143-.514-.514v-2.316c0-.314.2-.543.543-.629 1.057-.257 3.058-.6 4.945-.6 4.116 0 6.689 1.658 6.689 5.831zm-4.545 6.918c-.686.343-1.486.629-2.344.629h-.109c-1.128-.015-1.692-.266-1.692-1.43V28l.001-.097c.024-1.336.56-1.99 2.515-1.99h1.629v3.144zm22.754-11.777v1.63c0 .372-.148.497-.446.604l-.068.024-.886.286c.343.514.628 1.43.628 2.115v.229c0 3.716-2.601 5.345-7.06 5.345-1.344 0-2.401-.2-2.973-.428-.315.2-.4.4-.4.657 0 .458.171.658.857.8l3.23.715c4.974 1.087 6.689 1.858 6.689 4.602v.23c0 3.144-2.458 4.659-7.489 4.659-4.745 0-7.261-1.658-7.261-4.66v-.229c0-1.171.486-2.258 1.715-3.201-1.029-.572-1.457-1.715-1.457-2.659 0-1.057.543-1.858 1.257-2.43-.914-.8-1.315-2.258-1.315-3.401v-.229c0-3.23 2.144-5.402 7.147-5.402h7.118c.4 0 .714.343.714.743zm-5.288 4.66v.228c0 1.23-.543 2.001-2.544 2.001-2.149 0-2.592-1.006-2.601-1.969v-.342c.027-1.131.618-1.977 2.601-1.977 2.029 0 2.544.886 2.544 2.058zm.143 12.148v-.229c0-.525-.349-.89-2.707-1.432l-.237-.054-2.116-.457c-.343.486-.572.943-.572 1.944v.228c0 .972.658 1.458 2.859 1.458h.077c2.201-.013 2.666-.57 2.694-1.374l.002-.084zm21.353-8.604v-1.658c0-4.316-2.372-7.518-7.06-7.518-4.545 0-7.232 2.916-7.232 7.518v2c0 5.518 3.716 7.348 7.175 7.348 2.436 0 3.967-.22 5.748-.659l.112-.028c.486-.114.6-.314.6-.771v-2.173c0-.314-.229-.457-.543-.457h-.086l-.13.012a69.925 69.925 0 01-5.358.245c-2.235 0-2.93-1.456-2.945-3.066v-.107h9.119c.372 0 .6-.257.6-.686zm-9.719-2.173h5.203l-.001-.187c-.022-2.067-.99-3.1-2.572-3.1-1.572 0-2.63 1.086-2.63 3.173v.114zM219.052 3.5v.675c0 .072-.066.124-.138.124h-1.062v3.815a.131.131 0 01-.131.132h-.859a.131.131 0 01-.131-.132V4.3h-1.068c-.072 0-.131-.052-.131-.124v-.676c0-.072.059-.124.131-.124h3.251c.072 0 .138.052.138.124zm4.943 4.746c.052 0 .111-.02.111-.092v-4.55c0-.137-.098-.23-.236-.23h-.616a.305.305 0 00-.288.178l-1.003 1.868c-.027.053-.046.085-.072.085-.027 0-.046-.032-.073-.085l-1.003-1.868a.305.305 0 00-.288-.177h-.616c-.138 0-.236.085-.236.223v4.556c0 .072.059.092.111.092h.866c.059 0 .104-.06.104-.132V5.381c0-.046.02-.053.033-.053.02 0 .033.013.053.046l.59 1.082a.21.21 0 00.196.111h.525a.209.209 0 00.196-.111l.59-1.082c.02-.033.033-.046.053-.046.013 0 .033.007.033.053v2.733c0 .073.046.132.105.132h.865zM51.996 1a3.278 3.278 0 013.278 3.278v1.656l4.364-4.33c.482-.484 1.228-.21 1.228.444v12.137c0 .641-.72.918-1.203.468l-.025-.024-4.364-4.33v1.742a3.278 3.278 0 01-3.278 3.278H44.06a3.278 3.278 0 01-3.277-3.278V4.278A3.278 3.278 0 0144.06 1h7.936z" fill="#000"/><path fill-rule="evenodd" clip-rule="evenodd" d="M39.99 25.774l.001.138c0 3.03-2 6.26-7.803 6.26-2.158 0-3.794-.234-5.207-.58l-.196-.048c-.286-.086-.572-.258-.572-.572V28.17c0-.4.229-.543.515-.543h.085c1.172.115 4.317.343 5.432.343 1.972 0 2.544-.628 2.544-2v-.04c-.013-.805-.424-1.261-1.887-2.133l-4.03-2.395c-2.588-1.56-3.288-3.345-3.288-5.409 0-3.145 1.773-5.574 7.318-5.574 2.023 0 4.797.322 5.955.602l.105.027c.229.057.43.2.43.514v2.887c0 .258-.115.486-.487.486h-.057l-.281-.02c-1.07-.079-3.775-.277-5.552-.293l-.227-.001c-1.63 0-2.23.486-2.23 1.515 0 .8.372 1.172 1.915 2l3.66 1.973c2.913 1.57 3.822 3.412 3.857 5.665zm-35.102 5.57V11.218a.526.526 0 00-.543-.543H.515c-.315 0-.515.229-.515.543v20.124c0 .315.2.572.515.572h3.83c.314 0 .543-.257.543-.572zm17.78-.03v-9.518c0-3.602-.914-6.49-5.06-6.49-1.829 0-3.087.373-4.659 1.487v-.686a.573.573 0 00-.571-.571H9.176a.573.573 0 00-.572.571v15.208c0 .314.286.6.6.6h3.46c.314 0 .571-.286.571-.6V20.052c.972-.514 1.858-.915 2.687-.915 1.744 0 2.116.658 2.116 2.659v9.519c0 .314.257.6.571.6h3.46c.314 0 .6-.286.6-.6zm24.984.03V16.106a.573.573 0 00-.571-.571h-3.488a.573.573 0 00-.572.571v15.236c0 .315.258.572.572.572h3.488a.573.573 0 00.571-.572zm18.324-15.065v1.63c0 .372-.149.497-.446.604l-.069.024-.886.286c.343.514.629 1.43.629 2.115v.229c0 3.716-2.601 5.345-7.06 5.345-1.344 0-2.402-.2-2.974-.428-.314.2-.4.4-.4.657 0 .458.172.658.858.8l3.23.715c4.974 1.087 6.69 1.858 6.69 4.602v.23c0 3.144-2.46 4.659-7.49 4.659-4.746 0-7.261-1.658-7.261-4.66v-.229c0-1.171.486-2.258 1.715-3.201-1.03-.572-1.458-1.715-1.458-2.659 0-1.057.543-1.858 1.258-2.43-.915-.8-1.315-2.258-1.315-3.401v-.229c0-3.23 2.144-5.402 7.146-5.402h7.118c.4 0 .715.343.715.743zm-5.288 4.66v.228l-.001.086c-.026 1.18-.59 1.915-2.544 1.915-2.172 0-2.6-1.03-2.6-2.001v-.229c0-1.172.57-2.058 2.6-2.058 2.03 0 2.544.886 2.544 2.058zm.142 12.148v-.229c0-.525-.348-.89-2.707-1.432l-.237-.054-2.115-.457c-.343.486-.572.943-.572 1.944v.228c0 .972.657 1.458 2.859 1.458h.076c2.201-.013 2.666-.57 2.695-1.374l.001-.084zm21.554-1.772v-9.52c0-3.6-.915-6.488-5.06-6.488-1.83 0-3.087.371-4.66 1.486v-.686a.573.573 0 00-.57-.571h-3.202a.573.573 0 00-.572.571v15.208c0 .314.286.6.6.6h3.459c.314 0 .572-.286.572-.6V20.052l.181-.095c.901-.468 1.729-.82 2.506-.82 1.725 0 2.107.644 2.115 2.594v9.584c0 .314.257.6.572.6h3.459c.314 0 .6-.286.6-.6zm15.922-2.773v2.659c0 .371-.171.514-.571.6-.944.2-3.145.372-4.66.372-3.687 0-6.975-.944-6.975-6.146v-14.78c0-.314.258-.571.572-.571h3.745c.314 0 .571.257.571.572v14.84c.013 1.397.478 1.857 1.721 1.881l.109.001h4.917c.314 0 .571.258.571.572zm14.979 2.801V21.139c0-4.173-2.573-5.831-6.689-5.831-1.887 0-3.888.343-4.945.6-.343.086-.543.315-.543.63v2.315c0 .371.228.514.514.514h.143l.101-.01a59.761 59.761 0 014.544-.19h.1c1.344 0 2.144.343 2.144 1.972v1.03h-1.543c-4.888 0-7.032 1.486-7.032 4.83v.258c0 3.716 2.401 4.916 4.888 4.916 1.715 0 2.858-.485 3.973-1.286v.457c0 .315.257.572.572.572h3.201a.573.573 0 00.572-.572zm-6.889-2.658c.858 0 1.658-.286 2.344-.629v-3.144h-1.629c-2.001 0-2.516.686-2.516 2.087v.257c0 1.163.564 1.414 1.692 1.428l.109.001zm24.384 2.63v-9.52l-.001-.214c-.037-3.501-.997-6.274-5.059-6.274-1.829 0-3.087.371-4.659 1.486v-.686a.574.574 0 00-.572-.571h-3.202a.573.573 0 00-.571.571v15.208c0 .314.285.6.6.6h3.459c.314 0 .571-.286.571-.6V20.052c.972-.514 1.858-.915 2.687-.915 1.744 0 2.116.658 2.116 2.659v9.519c0 .314.257.6.572.6h3.458a.624.624 0 00.601-.6zm18.209-15.036v1.63c0 .372-.149.497-.446.604l-.069.024-.886.286c.343.514.629 1.43.629 2.115v.229c0 3.716-2.601 5.345-7.061 5.345-1.343 0-2.401-.2-2.973-.428-.314.2-.4.4-.4.657 0 .458.172.658.858.8l3.23.715c4.974 1.087 6.689 1.858 6.689 4.602v.23c0 3.144-2.458 4.659-7.489 4.659-4.746 0-7.261-1.658-7.261-4.66v-.229c0-1.171.486-2.258 1.715-3.201-1.029-.572-1.458-1.715-1.458-2.659 0-1.057.543-1.858 1.258-2.43-.915-.8-1.315-2.258-1.315-3.401v-.229c0-3.23 2.144-5.402 7.146-5.402h7.118c.4 0 .715.343.715.743zm-5.289 4.619v.269c0 1.23-.543 2.001-2.544 2.001-2.148 0-2.591-1.006-2.601-1.969v-.26l.001-.082c.026-1.131.618-1.977 2.6-1.977 2.006 0 2.532.866 2.544 2.018zm.143 12.19v-.23c0-.525-.348-.89-2.707-1.432l-.237-.054-2.115-.457c-.343.486-.572.943-.572 1.944v.228c0 .972.657 1.458 2.859 1.458h.076c2.226-.013 2.677-.583 2.696-1.402v-.056zm21.554-1.745V16.136c0-.315-.286-.6-.6-.6h-3.459c-.315 0-.572.285-.572.6v11.263c-.972.514-1.858.914-2.687.914-1.725 0-2.107-.643-2.115-2.593v-9.584c0-.315-.258-.6-.572-.6h-3.459c-.314 0-.6.285-.6.6v9.519c0 3.602.915 6.489 5.06 6.489 1.829 0 3.087-.372 4.659-1.487v.686c0 .315.257.572.572.572h3.201a.573.573 0 00.572-.572zm16.065-10.205v10.205a.573.573 0 01-.572.572h-3.201a.573.573 0 01-.572-.572v-.457c-1.115.8-2.258 1.287-3.973 1.287-2.487 0-4.888-1.201-4.888-4.917v-.258c0-3.344 2.144-4.83 7.032-4.83h1.543v-1.03c0-1.629-.8-1.972-2.144-1.972h-.1a59.761 59.761 0 00-4.544.19l-.101.01h-.143c-.286 0-.514-.143-.514-.514v-2.316c0-.314.2-.543.543-.629 1.057-.257 3.058-.6 4.945-.6 4.116 0 6.689 1.658 6.689 5.831zm-4.545 6.918c-.686.343-1.486.629-2.344.629h-.109c-1.128-.015-1.692-.266-1.692-1.43V27l.001-.097c.024-1.336.56-1.99 2.515-1.99h1.629v3.144zm22.754-11.777v1.63c0 .372-.148.497-.446.604l-.068.024-.886.286c.343.514.628 1.43.628 2.115v.229c0 3.716-2.601 5.345-7.06 5.345-1.344 0-2.401-.2-2.973-.428-.315.2-.4.4-.4.657 0 .458.171.658.857.8l3.23.715c4.974 1.087 6.689 1.858 6.689 4.602v.23c0 3.144-2.458 4.659-7.489 4.659-4.745 0-7.261-1.658-7.261-4.66v-.229c0-1.171.486-2.258 1.715-3.201-1.029-.572-1.457-1.715-1.457-2.659 0-1.057.543-1.858 1.257-2.43-.914-.8-1.315-2.258-1.315-3.401v-.229c0-3.23 2.144-5.402 7.147-5.402h7.118c.4 0 .714.343.714.743zm-5.288 4.66v.228c0 1.23-.543 2.001-2.544 2.001-2.149 0-2.592-1.006-2.601-1.969v-.342c.027-1.131.618-1.977 2.601-1.977 2.029 0 2.544.886 2.544 2.058zm.143 12.148v-.229c0-.525-.349-.89-2.707-1.432l-.237-.054-2.116-.457c-.343.486-.572.943-.572 1.944v.228c0 .972.658 1.458 2.859 1.458h.077c2.201-.013 2.666-.57 2.694-1.374l.002-.084zm21.353-8.604v-1.658c0-4.316-2.372-7.518-7.06-7.518-4.545 0-7.232 2.916-7.232 7.518v2c0 5.518 3.716 7.348 7.175 7.348 2.436 0 3.967-.22 5.748-.659l.112-.028c.486-.114.6-.314.6-.771v-2.173c0-.314-.229-.457-.543-.457h-.086l-.13.012a69.925 69.925 0 01-5.358.245c-2.235 0-2.93-1.456-2.945-3.066v-.107h9.119c.372 0 .6-.257.6-.686zm-9.719-2.173h5.203l-.001-.187c-.022-2.067-.99-3.1-2.572-3.1-1.572 0-2.63 1.086-2.63 3.173v.114zM219.052 2.5v.675c0 .072-.066.124-.138.124h-1.062v3.815a.131.131 0 01-.131.132h-.859a.131.131 0 01-.131-.132V3.3h-1.068c-.072 0-.131-.052-.131-.124v-.676c0-.072.059-.124.131-.124h3.251c.072 0 .138.052.138.124zm4.943 4.746c.052 0 .111-.02.111-.092v-4.55c0-.137-.098-.23-.236-.23h-.616a.305.305 0 00-.288.178l-1.003 1.868c-.027.053-.046.085-.072.085-.027 0-.046-.032-.073-.085l-1.003-1.868a.305.305 0 00-.288-.177h-.616c-.138 0-.236.085-.236.223v4.556c0 .072.059.092.111.092h.866c.059 0 .104-.06.104-.132V4.381c0-.046.02-.053.033-.053.02 0 .033.013.053.046l.59 1.082a.21.21 0 00.196.111h.525a.209.209 0 00.196-.111l.59-1.082c.02-.033.033-.046.053-.046.013 0 .033.007.033.053v2.733c0 .073.046.132.105.132h.865zM51.996 0a3.278 3.278 0 013.278 3.278v1.656l4.364-4.33c.482-.484 1.228-.21 1.228.444v12.137c0 .641-.72.918-1.203.468l-.025-.024-4.364-4.33v1.742a3.278 3.278 0 01-3.278 3.278H44.06a3.278 3.278 0 01-3.277-3.278V3.278A3.278 3.278 0 0144.06 0h7.936z" fill="#F59A22"/></svg>