<svg width="215" height="37" xmlns="http://www.w3.org/2000/svg"><g fill="#000" fill-rule="evenodd"><path d="M4.686 30.048V10.755c0-.301-.22-.52-.52-.52H.492c-.301 0-.493.219-.493.52v19.293c0 .302.192.548.493.548h3.672c.302 0 .521-.246.521-.548zm17.046-.027v-9.126c0-3.453-.877-6.22-4.851-6.22-1.754 0-2.96.356-4.467 1.424v-.657a.55.55 0 00-.548-.548h-3.07a.55.55 0 00-.547.548V30.02c0 .301.274.575.575.575h3.316c.302 0 .548-.274.548-.575V19.223c.932-.493 1.781-.877 2.576-.877 1.672 0 2.028.63 2.028 2.55v9.125c0 .301.247.575.548.575h3.316a.598.598 0 00.576-.575zm16.607-5.18l-.002-.132c-.033-2.16-.905-3.927-3.698-5.43l-3.508-1.892c-1.48-.794-1.836-1.15-1.836-1.918 0-.987.576-1.452 2.138-1.452h.217c1.884.018 4.854.248 5.592.301h.055c.356 0 .466-.22.466-.466v-2.768c0-.301-.192-.438-.411-.493l-.101-.025c-1.11-.269-3.77-.578-5.709-.578-5.316 0-7.015 2.33-7.015 5.344 0 1.979.67 3.69 3.152 5.186l3.863 2.295c1.402.836 1.796 1.274 1.809 2.045v.038c0 1.315-.548 1.918-2.439 1.918-1.069 0-4.083-.219-5.207-.328h-.082c-.274 0-.493.137-.493.52v2.686c0 .301.274.466.548.548l.187.047c1.355.33 2.923.556 4.992.556 5.563 0 7.482-3.097 7.482-6.002zm7.344 5.207V15.442a.55.55 0 00-.548-.548H41.79a.55.55 0 00-.548.548v14.606a.55.55 0 00.548.548h3.344a.55.55 0 00.548-.548zm17.566-12.88v-1.562c0-.384-.301-.712-.685-.712H55.74c-4.796 0-6.85 2.082-6.85 5.179v.22c0 1.095.383 2.493 1.26 3.26-.685.548-1.206 1.316-1.206 2.33 0 .904.411 2 1.398 2.548-1.179.905-1.645 1.946-1.645 3.07v.219c0 2.877 2.412 4.467 6.961 4.467 4.823 0 7.18-1.453 7.18-4.467v-.22c0-2.63-1.644-3.37-6.413-4.412l-3.096-.685c-.658-.137-.822-.329-.822-.767 0-.247.082-.438.383-.63.548.219 1.562.41 2.85.41 4.275 0 6.77-1.561 6.77-5.124v-.22c0-.657-.275-1.534-.604-2.027l.85-.274.065-.023c.285-.103.428-.223.428-.58zm-5.07 2.905v.302c-.025 1.13-.566 1.835-2.439 1.835-2.083 0-2.494-.986-2.494-1.918v-.22c0-1.123.549-1.972 2.494-1.972 1.946 0 2.44.85 2.44 1.973zm.137 11.427v.22l-.001.08c-.028.77-.474 1.305-2.584 1.317h-.073c-2.11 0-2.74-.466-2.74-1.397v-.22c0-.959.219-1.397.548-1.863l2.028.438.227.052c2.261.52 2.595.87 2.595 1.373zm20.663-1.48v-9.125c0-3.453-.877-6.22-4.85-6.22-1.754 0-2.96.356-4.467 1.424v-.657a.55.55 0 00-.549-.548h-3.069a.55.55 0 00-.548.548V30.02c0 .301.274.575.576.575h3.316c.301 0 .548-.274.548-.575V19.223l.173-.09c.864-.45 1.658-.787 2.403-.787 1.653 0 2.02.617 2.027 2.487v9.188c0 .301.247.575.549.575h3.316a.598.598 0 00.575-.575zm15.264-.109v-2.549a.55.55 0 00-.548-.548h-4.817c-1.193-.024-1.638-.464-1.65-1.805V10.783a.55.55 0 00-.548-.548h-3.59a.55.55 0 00-.548.548V24.95c0 4.987 3.151 5.892 6.686 5.892 1.453 0 3.563-.165 4.467-.356.384-.083.548-.22.548-.576zm14.36.137v-9.783c0-4.001-2.466-5.59-6.413-5.59-1.808 0-3.727.328-4.74.575-.33.082-.521.301-.521.603v2.22c0 .356.219.493.493.493h.137l.097-.01c.877-.079 2.692-.178 4.356-.182h.096c1.288 0 2.055.329 2.055 1.89v.987h-1.48c-4.685 0-6.74 1.425-6.74 4.632v.246c0 3.563 2.301 4.714 4.685 4.714 1.645 0 2.74-.466 3.81-1.233v.438a.55.55 0 00.548.548h3.069a.55.55 0 00.548-.548zm-4.357-3.151c-.658.328-1.425.602-2.247.602h-.105c-1.081-.014-1.622-.254-1.622-1.37v-.246c0-1.343.493-2 2.412-2h1.562v3.014zm21.128 3.124V20.689c-.036-3.356-.956-6.015-4.85-6.015-1.754 0-2.96.357-4.467 1.425v-.657a.55.55 0 00-.548-.548h-3.07a.55.55 0 00-.548.548V30.02c0 .301.275.575.576.575h3.316c.301 0 .548-.274.548-.575V19.223c.932-.493 1.781-.877 2.576-.877 1.672 0 2.028.63 2.028 2.55v9.125c0 .301.247.575.548.575h3.316a.598.598 0 00.575-.575zm17.457-12.853v-1.562c0-.384-.302-.712-.685-.712h-6.824c-4.796 0-6.851 2.082-6.851 5.179v.22c0 1.095.384 2.493 1.26 3.26-.684.548-1.205 1.316-1.205 2.33 0 .904.41 2 1.397 2.548-1.178.905-1.644 1.946-1.644 3.07v.219c0 2.877 2.412 4.467 6.96 4.467 4.824 0 7.18-1.453 7.18-4.467v-.22c0-2.63-1.643-3.37-6.412-4.412l-3.096-.685c-.658-.137-.823-.329-.823-.767 0-.247.083-.438.384-.63.548.219 1.562.41 2.85.41 4.275 0 6.769-1.561 6.769-5.124v-.22c0-.657-.274-1.534-.603-2.027l.85-.274.065-.023c.285-.103.428-.223.428-.58zm-5.07 2.866v.258c0 1.179-.52 1.918-2.439 1.918-2.06 0-2.484-.964-2.494-1.887v-.25l.001-.078c.026-1.085.593-1.895 2.493-1.895 1.923 0 2.427.83 2.439 1.934zm.137 11.466v.274c-.019.784-.45 1.33-2.585 1.343h-.073c-2.11 0-2.74-.466-2.74-1.397v-.22c0-.959.219-1.397.548-1.863l2.027.438.228.052c2.261.52 2.595.87 2.595 1.373zm20.663-1.452V15.47a.598.598 0 00-.576-.575h-3.316c-.301 0-.548.274-.548.575v10.797c-.931.494-1.78.877-2.576.877-1.653 0-2.02-.616-2.027-2.486v-9.188c0-.301-.247-.575-.549-.575h-3.316a.598.598 0 00-.575.575v9.126c0 3.453.877 6.22 4.85 6.22 1.754 0 2.96-.356 4.467-1.425v.658a.55.55 0 00.549.548h3.069a.55.55 0 00.548-.548zm15.401 0v-9.783c0-4.001-2.466-5.59-6.413-5.59-1.808 0-3.727.328-4.74.575-.33.082-.521.301-.521.603v2.22c0 .356.22.493.493.493h.137l.097-.01c.877-.079 2.692-.178 4.356-.182h.096c1.288 0 2.056.329 2.056 1.89v.987h-1.48c-4.686 0-6.742 1.425-6.742 4.632v.246c0 3.563 2.302 4.714 4.686 4.714 1.645 0 2.74-.466 3.81-1.233v.438a.55.55 0 00.548.548h3.069a.55.55 0 00.548-.548zm-4.357-3.151c-.658.328-1.425.602-2.247.602h-.105c-1.081-.014-1.622-.254-1.622-1.37v-.246l.001-.093c.023-1.28.537-1.908 2.41-1.908h1.563v3.015zm21.814-9.729v-1.562c0-.384-.302-.712-.686-.712h-6.823c-4.796 0-6.851 2.082-6.851 5.179v.22c0 1.095.383 2.493 1.26 3.26-.685.548-1.205 1.316-1.205 2.33 0 .904.41 2 1.397 2.548-1.178.905-1.644 1.946-1.644 3.07v.219c0 2.877 2.411 4.467 6.96 4.467 4.824 0 7.18-1.453 7.18-4.467v-.22c0-2.63-1.644-3.37-6.412-4.412l-3.097-.685c-.657-.137-.822-.329-.822-.767 0-.247.082-.438.384-.63.548.219 1.562.41 2.85.41 4.275 0 6.769-1.561 6.769-5.124v-.22c0-.657-.274-1.534-.603-2.027l.85-.274.065-.023c.285-.103.428-.223.428-.58zm-5.07 2.905v.22c0 1.178-.52 1.917-2.44 1.917-2.059 0-2.484-.964-2.493-1.887v-.328c.026-1.085.593-1.895 2.494-1.895 1.945 0 2.439.85 2.439 1.973zm.137 11.427v.22l-.002.08c-.027.77-.473 1.305-2.583 1.317h-.073c-2.11 0-2.74-.466-2.74-1.397v-.22c0-.959.218-1.397.547-1.863l2.028.438.228.052c2.26.52 2.595.87 2.595 1.373zm20.47-8.029v-1.59c0-4.137-2.274-7.207-6.768-7.207-4.357 0-6.933 2.796-6.933 7.208V23.8c0 5.289 3.562 7.043 6.878 7.043 2.336 0 3.803-.21 5.51-.631l.108-.027c.466-.11.575-.301.575-.74v-2.083c0-.301-.219-.438-.52-.438h-.082l-.125.012a67.054 67.054 0 01-5.137.235c-2.143 0-2.809-1.396-2.822-2.94v-.102h8.741c.357 0 .576-.247.576-.658zm-4.33-2.083h-4.987v-.11c0-2 1.014-3.041 2.522-3.041 1.516 0 2.444.99 2.466 2.971v.18zM209.998 3.043v-.647c0-.069-.063-.12-.132-.12h-3.117c-.069 0-.126.051-.126.12v.647c0 .07.057.12.126.12h1.025V6.82c0 .07.056.126.125.126h.823c.07 0 .126-.056.126-.126V3.163h1.018c.07 0 .132-.05.132-.12zm4.846 3.815c0 .07-.057.088-.107.088h-.83c-.056 0-.1-.056-.1-.126V4.2c0-.044-.02-.05-.032-.05-.019 0-.031.012-.05.043l-.566 1.037a.202.202 0 01-.188.107h-.503a.202.202 0 01-.188-.107l-.566-1.037c-.019-.03-.031-.043-.05-.043-.013 0-.032.006-.032.05v2.62c0 .07-.044.126-.1.126h-.83c-.05 0-.107-.019-.107-.088V2.49c0-.132.095-.213.227-.213h.59c.132 0 .22.063.277.17l.961 1.79c.026.05.044.082.07.082.025 0 .044-.031.069-.082l.961-1.79a.293.293 0 01.277-.17h.59c.132 0 .227.088.227.22v4.361z" fill-rule="nonzero"/><path d="M49.847 0a3.142 3.142 0 013.142 3.142V4.73L57.173.579c.462-.464 1.178-.2 1.178.426V12.64c0 .615-.691.88-1.154.449l-.024-.024-4.184-4.15v1.67a3.142 3.142 0 01-3.142 3.142H42.24a3.142 3.142 0 01-3.142-3.142V3.142A3.142 3.142 0 0142.24 0h7.608z"/></g></svg>