<svg version="1.0" xmlns="http://www.w3.org/2000/svg" width="1685.333" height="1685.333" viewBox="0 0 1264 1264"><path d="M189.9 180.4c-.2.2-3.4.7-7.1 1-3.7.4-8 1-9.5 1.3-1.5.3-4 .6-5.5.7-1.6 0-2.8.4-2.8.8 0 .5-.3.7-.7.6-1.2-.3-8.1 1.2-13.8 2.9-7.3 2.2-7.5 2.2-8 2.3-3.5.5-33 13.4-34.5 15.1-.3.3-1.2.8-2 1.2-4.6 2-18.8 11.3-25.4 16.7-1.7 1.4-3.5 2.8-4.1 3.2-2.7 1.9-8.3 7-15.3 13.9-8 8-9.1 9.2-15.7 17.4-2.2 2.7-4.3 5.2-4.6 5.5-1.2 1-13.1 19.9-12.9 20.6.1.4-.3 1-.8 1.3-.9.6-8.1 14.3-8.3 15.8-.1.5-.9 2.4-1.9 4.3-1.9 3.8-6.7 16.7-8.1 21.5-3.4 12.7-4.8 18.9-4.4 19.3.3.3.1 1-.4 1.6-.5.6-1.2 3.3-1.4 6.1-.3 2.7-.6 5-.7 5-1.6 0-2.4 532.8-.8 542.5.4 2.5 1 6.3 1.4 8.5.7 5.2 1.2 8 1.4 8 .1 0 .4 1.3.6 3 .3 1.6 1.2 5.5 2 8.5.9 3 1.7 5.9 1.9 6.5 1 4.3 1.9 7.2 2.8 8.3.5.6.7 1.2.4 1.2-.5 0 1.4 5.1 5.6 15 .6 1.4 1.1 2.7 1.2 3 .5 1.9 5.1 10.6 5.8 10.8.4.2.7.9.7 1.5 0 .7 2.3 4.7 5 9 2.8 4.3 5 8.2 5 8.8 0 .5.4.9.8.9s1.6 1.5 2.7 3.2c1 1.8 2.1 3.5 2.4 3.8.3.3 3.2 3.6 6.3 7.5 10.2 12.7 26.9 28.4 38.8 36.5 1.9 1.3 3.7 2.7 4 3 3.3 4 46 25.6 46 23.3 0-.3.6-.1 1.3.5.6.5 6.2 2.4 12.2 4.1 10.7 3 13.8 3.7 20 4.7 1.7.2 3.9.6 5 .9 1.1.2 4.9.8 8.5 1.2 8.7 1.1 537.5 1 546.5 0 3.9-.5 9.3-1.3 12-1.8 2.8-.6 6.1-1.2 7.5-1.5 3.4-.7 17.1-4.4 19-5.1.8-.4 2.2-.7 3-.8 1.4-.2 7.5-2.6 16-6.3 7.1-3 25-12.2 26-13.2.3-.4 3.9-2.8 8-5.5 7.4-4.9 9.9-6.7 12.5-9.2.8-.7 1.6-1.3 1.9-1.3.6 0 5-4 15.3-14 14-13.6 26.8-30.7 37.1-49.7 2.6-4.8 4.8-9.1 4.9-9.6.1-.4 1.1-2.8 2.3-5.3 1.1-2.6 2-4.8 2-4.9 0-.1.8-2 1.7-4.1.9-2.2 1.6-4.3 1.5-4.7-.1-.4.4-2 1.2-3.5 1.3-2.6 4.2-12.8 5.3-18.7.8-4.7 1.1-6 1.4-6 .1 0 .3-.9.4-2 .8-5.8 1.8-12.2 2.1-14 .3-1.1.7-7 1-13 .3-6.1.6-12.7.7-14.8.1-2 0-3.7-.3-3.7s-.5-2.3-.5-5c0-2.8.2-5 .5-5 .7 0 .3-16.8-.4-18.6-.3-.8-.2-1.4.2-1.4s.7-2.9.7-6.5-.3-6.5-.7-6.5c-.4 0-.3-1.1.2-2.5.5-1.3.6-2.6.2-2.9-.8-.5-.8-6.4.1-7.2.3-.3.2-1.7-.3-3-.6-1.4-.6-2.6 0-2.9.6-.3.6-1.5 0-3-.5-1.3-.5-2.7-.1-2.9.8-.5.6-5.8-.4-8.3-.2-.7 0-1.3.5-1.3s.5-1.3 0-3-.6-3-.2-3c.6 0 .7-6.4.2-8-.4-1.1-.1-10.3.4-10.7.2-.3 23.8 22.7 52.3 51.1 28.4 28.4 52.1 51.6 52.5 51.6.3 0 1 .9 1.3 2 .4 1.1 1.1 1.8 1.6 1.5.5-.4.9-.2.9.3s6 6.8 13.3 14c7.2 7.2 44.9 44.7 83.7 83.3 38.8 38.6 72.3 71.6 74.5 73.4 3.9 3.1 12.5 7.6 17.5 9 4.1 1.3 16.2 1.4 21.4.3 2.8-.6 6.5-1.9 8.3-2.9 1.8-1 3.3-1.7 3.3-1.4 0 .6 2.5-1.5 8.6-6.9 2.4-2.2 4.4-4.5 4.4-5.3 0-.7.4-1.3.9-1.3 1.4 0 5-9.7 6.1-16.4.7-4.2.9-128.4.7-395.1-.2-214-.5-389.7-.7-390.5-.7-3.5-7.1-15.7-9.7-18.5-3.5-3.7-9.8-8.5-11.2-8.5-.6 0-1.1-.5-1.1-1.2 0-.6-.3-.8-.7-.5-.3.4-1.1.3-1.7-.2-3.1-2.3-22.6-4.5-25.4-2.7-.5.3-2 .7-3.5 1-3.5.6-9.3 3.4-14.7 7-2.5 1.6-26.3 24.7-53 51.3C1027.5 376.6 929.5 474.1 921.5 482c-6.7 6.5-8.8 8.1-9.5 7-.5-.8-.5-2.1 0-2.9.4-.8.4-2.5 0-3.7-.5-1.2-.7-2.4-.4-2.7.9-.8 1-8.8.2-9.3-.5-.3-.6-1-.2-1.5.8-1.3.9-10.7.1-11.5-.3-.3-.2-1.6.3-2.8.4-1.3.5-2.8 0-3.5-.4-.7-.4-2.8 0-4.7.4-1.9.4-3.4-.1-3.4s-.4-1.1.1-2.5c.5-1.3.6-2.6.2-2.9-.8-.5-.8-6.4.1-7.2.3-.3.2-1.7-.3-3-.6-1.4-.6-2.6 0-2.9.6-.3.6-1.5 0-3-.5-1.3-.5-2.7-.1-2.9.8-.5.6-5.8-.4-8.4-.2-.6 0-1.2.5-1.2s.5-1.3 0-3-.6-3-.2-3c.8 0 .7-6.8-.1-7.6-.3-.3-.2-1.6.3-2.9.5-1.3.7-2.5.4-2.8-.3-.2-.7-5.8-.9-12.3-.3-6.6-.6-13-.8-14.4-.2-1.4-.8-5-1.2-8-.7-5.3-1-6.9-1.9-10.8-.2-.9-.9-3.9-1.6-6.7-1.1-4.7-3.5-13.3-4.8-16.5-.3-.8-.6-1.7-.7-2-.7-2.9-3.4-9.7-5.8-15-1.7-3.6-3.1-6.7-3.1-7-.1-.6-8.5-15.6-10.3-18.5-.7-1.1-1.6-2.8-1.9-3.8-.3-.9-1-1.7-1.5-1.7s-.9-.6-.9-1.4c0-.8-.4-1.6-.8-1.8-.4-.2-2.3-2.5-4.2-5.3-1.9-2.7-3.9-5.5-4.5-6.1-.5-.6-3-3.5-5.5-6.4-9-10.7-19.2-20.2-32-30-4.7-3.6-8.8-7-9.2-7.5-.4-.6-.8-.6-.8-.2 0 .4-1.5-.3-3.3-1.7-1.9-1.5-3.9-2.6-4.5-2.6-.7 0-1.2-.4-1.2-.8s-1.5-1.5-3.2-2.4c-1.8-.8-6.4-3.1-10.3-5-10-5-13.2-6.4-20-8.8-3.3-1.2-6.9-2.5-8-2.9-2.9-1.2-12.4-3.8-17-4.7-2.2-.4-4.4-.8-5-1-2.2-.6-6.1-1.4-9.5-1.9-1.9-.3-6.4-.9-10-1.4-6.1-.9-537.2-1.6-538.1-.7z"/></svg>